<svg width="327" height="90" viewBox="0 0 327 90" fill="none" xmlns="http://www.w3.org/2000/svg">
<path d="M23.8984 1.09961H30.2985L43.7985 32.7993H36.5984L33.6984 25.6997H20.3984L17.4984 32.7993H10.3984L23.8984 1.09961ZM31.1984 19.5996L26.9984 9.39941L22.7985 19.5996H31.1984Z" fill="#1C2654"/>
<path d="M49 1.29883H55.9V32.7988H49V1.29883Z" fill="#1C2654"/>
<path d="M75.0977 28.1992L79.1976 23.2988C81.9976 25.5988 84.9977 27.0991 88.5977 27.0991C92.1977 27.0991 93.0977 25.9991 93.0977 24.0991C93.0977 22.2991 91.9977 21.399 86.7977 19.999C80.4977 18.399 76.3977 16.5989 76.3977 10.3989C76.3977 4.59893 80.9977 0.798828 87.3977 0.798828C93.7977 0.798828 95.8977 2.19883 99.0977 4.79883L95.4977 9.99902C92.6977 8.09902 89.9977 6.89893 87.2977 6.89893C84.5977 6.89893 83.2977 8.09912 83.2977 9.59912C83.2977 11.7991 84.5977 12.3988 90.0977 13.7988C96.4977 15.4988 100.098 17.7988 100.098 23.2988C100.098 29.5988 95.2977 33.1992 88.4977 33.1992C81.6977 33.1992 78.8977 31.4992 75.0977 28.1992Z" fill="#1C2654"/>
<path d="M116.199 1.09961H122.599L136.099 32.7993H128.899L125.999 25.6997H112.699L109.799 32.7993H102.699L116.199 1.09961ZM123.499 19.5996L119.299 9.39941L115.099 19.5996H123.499Z" fill="#1C2654"/>
<path d="M141 1.29883H148.5L156.8 14.5991L165.1 1.29883H172.6V32.7988H165.7V12.1992L156.8 25.6992H156.6L147.8 12.3989V32.7988H141V1.29883Z" fill="#1C2654"/>
<path d="M180 1.29883H192.9C200.4 1.29883 205 5.79922 205 12.1992C205 19.5992 199.3 23.3989 192.3 23.3989H187V32.7988H180.1V1.29883H180ZM192.5 17.1992C196 17.1992 198 15.0989 198 12.3989C198 9.19893 195.8 7.49902 192.4 7.49902H187V17.0991H192.5V17.1992Z" fill="#1C2654"/>
<path d="M210.098 1.29883H216.998V26.499H232.698V32.7988H210.098V1.29883Z" fill="#1C2654"/>
<path d="M238.297 1.29883H245.197V32.7988H238.297V1.29883Z" fill="#1C2654"/>
<path d="M253.098 1.29883H259.498L274.298 20.6992V1.29883H281.098V32.7988H275.198L259.898 12.7988V32.7988H253.098V1.29883Z" fill="#1C2654"/>
<path d="M287.198 17.1992C287.198 8.19922 294.198 0.798828 303.698 0.798828C313.198 0.798828 312.798 2.29912 316.098 5.09912L311.698 10.3989C309.298 8.39893 307.098 7.19922 303.498 7.19922C299.898 7.19922 294.498 11.699 294.498 16.999C294.498 22.799 298.498 27.0991 303.998 27.0991C309.498 27.0991 308.798 26.4992 310.498 25.1992V20.6992H303.498V14.6992H317.198V28.3989C313.998 31.0989 309.498 33.3989 303.698 33.3989C293.898 33.3989 287.098 26.4992 287.098 17.1992H287.198Z" fill="#1C2654"/>
<path d="M14.3984 57.0996H20.7985L34.2985 88.7993H27.0984L24.1984 81.6997H10.8984L7.99841 88.7993H0.898438L14.3984 57.0996ZM21.6984 75.5996L17.4984 65.3994L13.2985 75.5996H21.6984Z" fill="#1C2654"/>
<path d="M39.1992 57.2988H45.5992L60.3993 76.6992V57.2988H67.1992V88.7988H61.2993L45.9993 68.7988V88.7988H39.1992V57.2988Z" fill="#1C2654"/>
<path d="M74.6992 57.2988H86.9993C96.8993 57.2988 103.699 64.099 103.699 72.999C103.699 81.999 96.8993 88.7988 86.9993 88.7988H74.6992V57.2988ZM81.6992 63.5991V82.5991H87.0992C92.7992 82.5991 96.5992 78.7992 96.5992 73.1992C96.5992 67.4992 92.7992 63.5991 87.0992 63.5991H81.6992Z" fill="#1C2654"/>
<path d="M123.398 57.2988H136.298C143.798 57.2988 148.398 61.7992 148.398 68.1992C148.398 75.5992 142.698 79.3989 135.698 79.3989H130.398V88.7988H123.498V57.2988H123.398ZM135.798 73.1992C139.298 73.1992 141.298 71.0989 141.298 68.3989C141.298 65.1989 139.098 63.499 135.698 63.499H130.298V73.0991H135.798V73.1992Z" fill="#1C2654"/>
<path d="M152.098 73.1992C152.098 64.1992 159.198 56.7988 168.898 56.7988C178.598 56.7988 185.598 63.999 185.598 72.999C185.598 81.999 178.498 89.3989 168.798 89.3989C159.098 89.3989 152.098 82.1992 152.098 73.1992ZM178.298 73.1992C178.298 67.6992 174.298 63.1992 168.798 63.1992C163.298 63.1992 159.398 67.599 159.398 72.999C159.398 78.499 163.398 82.999 168.898 82.999C174.398 82.999 178.398 78.5992 178.398 73.1992H178.298Z" fill="#1C2654"/>
<path d="M191.699 57.2988H198.599V82.499H214.299V88.7988H191.699V57.2988Z" fill="#1C2654"/>
<path d="M219.598 57.2988H226.498V82.499H242.198V88.7988H219.598V57.2988Z" fill="#1C2654"/>
<path d="M247.797 57.2988H254.697V88.7988H247.797V57.2988Z" fill="#1C2654"/>
<path d="M262.598 57.2988H268.998L283.798 76.6992V57.2988H290.598V88.7988H284.698L269.398 68.7988V88.7988H262.598V57.2988Z" fill="#1C2654"/>
<path d="M296.698 73.1992C296.698 64.1992 303.698 56.7988 313.198 56.7988C322.698 56.7988 322.298 58.2991 325.598 61.0991L321.198 66.3989C318.798 64.3989 316.598 63.1992 312.998 63.1992C309.398 63.1992 303.998 67.699 303.998 72.999C303.998 78.799 307.998 83.0991 313.498 83.0991C318.998 83.0991 318.298 82.4992 319.998 81.1992V76.6992H312.998V70.6992H326.698V84.3989C323.498 87.0989 318.998 89.3989 313.198 89.3989C303.398 89.3989 296.598 82.4992 296.598 73.1992H296.698Z" fill="#1C2654"/>
</svg>
