<svg width="110" height="36" viewBox="0 0 110 36" fill="none" xmlns="http://www.w3.org/2000/svg">
<g clip-path="url(#clip0_1458_94585)">
<mask id="mask0_1458_94585" style="mask-type:luminance" maskUnits="userSpaceOnUse" x="0" y="0" width="110" height="35">
<path d="M109.304 0.541016H0.536621V34.7665H109.304V0.541016Z" fill="white"/>
</mask>
<g mask="url(#mask0_1458_94585)">
<path d="M20.9363 27.2193L23.1362 34.3675H29.2655L20.667 3.38672H8.94696L0.536621 34.3383H6.66593L8.59006 27.2193L10.154 21.4697L10.6634 19.5974L14.7648 4.49317L19.3723 21.4697" fill="black"/>
<path d="M31.2253 0.541016H36.8614V6.64437H31.2253V0.541016ZM31.2707 11.1091H36.8647V34.3674H31.2707V11.1091Z" fill="black"/>
<path d="M40.8882 11.1094H46.4789V12.7025C47.1051 11.9498 48.403 11.1094 51.4466 11.1094H54.8925V16.4146H51.4466C48.2245 16.4146 46.4789 18.1407 46.4789 21.499V34.3644H40.8882V11.1094Z" fill="black"/>
<path d="M56.2328 25.1263V20.35C56.2328 14.3375 60.571 10.71 66.5673 10.71C72.5635 10.71 76.8563 14.3343 76.8563 20.35V24.9933H61.6904V25.3924C61.6904 28.6209 63.7021 29.9026 66.5673 29.9026C68.9845 29.9026 70.9087 28.8837 71.1294 27.1185H76.7654C76.2301 31.937 72.1125 34.7664 66.564 34.7664C60.571 34.7664 56.2295 31.142 56.2295 25.1263M71.3954 20.6615V19.8212C71.3954 17.433 69.4259 15.7101 66.564 15.7101C63.7021 15.7101 61.6872 17.2124 61.6872 19.8212V20.6615H71.3954Z" fill="black"/>
<path d="M78.8679 11.1094H85.2662L90.1891 33.2612L95.108 11.1094H101.507L95.8705 34.3677H84.5076L78.8679 11.1094Z" fill="black"/>
<path d="M109.3 28.2646H103.664V34.368H109.3V28.2646Z" fill="black"/>
</g>
</g>
<defs>
<clipPath id="clip0_1458_94585">
<rect width="109.84" height="35.0214" fill="white"/>
</clipPath>
</defs>
</svg>
