<svg width="111" height="38" viewBox="0 0 111 38" fill="none" xmlns="http://www.w3.org/2000/svg">
<g clip-path="url(#clip0_1321_21237)">
<path d="M5.24135 36H0.901855L13.453 1.81818H17.7258L30.2769 36H25.9374L15.7229 7.22585H15.4559L5.24135 36ZM6.84362 22.6477H24.3351V26.3196H6.84362V22.6477ZM35.3424 36V10.3636H39.2813V36H35.3424ZM37.3453 6.09091C36.5775 6.09091 35.9155 5.82943 35.3591 5.30646C34.8139 4.7835 34.5413 4.15483 34.5413 3.42045C34.5413 2.68608 34.8139 2.05741 35.3591 1.53444C35.9155 1.01148 36.5775 0.75 37.3453 0.75C38.113 0.75 38.7695 1.01148 39.3147 1.53444C39.8711 2.05741 40.1492 2.68608 40.1492 3.42045C40.1492 4.15483 39.8711 4.7835 39.3147 5.30646C38.7695 5.82943 38.113 6.09091 37.3453 6.09091ZM46.4957 36V10.3636H50.3011V14.2358H50.5682C51.0355 12.9673 51.8812 11.9381 53.1051 11.1481C54.3291 10.3581 55.7088 9.96307 57.2443 9.96307C57.5336 9.96307 57.8952 9.96863 58.3292 9.97976C58.7631 9.99088 59.0914 10.0076 59.3139 10.0298V14.0355C59.1804 14.0021 58.8744 13.9521 58.396 13.8853C57.9286 13.8074 57.4335 13.7685 56.9105 13.7685C55.6643 13.7685 54.5516 14.0299 53.5724 14.5529C52.6044 15.0647 51.8366 15.7769 51.2692 16.6893C50.7128 17.5906 50.4347 18.6198 50.4347 19.777V36H46.4957ZM73.9514 36.5341C71.4812 36.5341 69.3504 35.9889 67.5589 34.8984C65.7786 33.7969 64.4045 32.2614 63.4364 30.2919C62.4795 28.3113 62.0011 26.008 62.0011 23.3821C62.0011 20.7562 62.4795 18.4418 63.4364 16.4389C64.4045 14.425 65.7508 12.8561 67.4755 11.7322C69.2113 10.5973 71.2364 10.0298 73.5508 10.0298C74.886 10.0298 76.2045 10.2524 77.5064 10.6974C78.8082 11.1425 79.9933 11.8658 81.0614 12.8672C82.1296 13.8575 82.9808 15.1705 83.6151 16.8061C84.2493 18.4418 84.5664 20.4557 84.5664 22.848V24.517H64.805V21.1122H80.5607C80.5607 19.6657 80.2714 18.375 79.6928 17.2401C79.1254 16.1051 78.3131 15.2094 77.256 14.5529C76.2101 13.8964 74.975 13.5682 73.5508 13.5682C71.9819 13.5682 70.6244 13.9576 69.4783 14.7365C68.3434 15.5043 67.4699 16.5057 66.858 17.7408C66.246 18.9759 65.94 20.3 65.94 21.7131V23.983C65.94 25.919 66.2738 27.5603 66.9414 28.9066C67.6201 30.2418 68.5604 31.2599 69.7621 31.9609C70.9638 32.6508 72.3602 32.9957 73.9514 32.9957C74.9862 32.9957 75.9208 32.8511 76.7553 32.5618C77.601 32.2614 78.3298 31.8163 78.9418 31.2266C79.5537 30.6257 80.0266 29.8802 80.3604 28.9901L84.1658 30.0582C83.7653 31.349 83.0921 32.4839 82.1463 33.4631C81.2005 34.4311 80.0322 35.1877 78.6413 35.733C77.2505 36.267 75.6871 36.5341 73.9514 36.5341ZM110.741 10.3636L101.261 36H97.2552L87.7751 10.3636H92.0479L99.1246 30.7926H99.3916L106.468 10.3636H110.741Z" fill="#191C1A"/>
</g>
<defs>
<clipPath id="clip0_1321_21237">
<rect width="111" height="37" fill="white" transform="translate(0 0.5)"/>
</clipPath>
</defs>
</svg>
