<svg width="149" height="72" viewBox="0 0 149 72" fill="none" xmlns="http://www.w3.org/2000/svg">
<path d="M85.8008 42.6997H93.9008C96.1008 42.6997 97.8008 43.2998 98.9008 44.3998C99.7008 45.1998 100.101 46.1998 100.101 47.4998C100.101 49.9998 98.6007 51.2998 97.1007 51.9998C99.4007 52.6998 101.201 53.9997 101.201 56.5997C101.201 59.8997 98.4008 61.8998 94.3008 61.8998H85.8008V42.7998V42.6997ZM98.0007 47.7998C98.0007 45.8998 96.5008 44.6997 93.8008 44.6997H88.0007V51.2998H93.7007C96.3007 51.2998 98.1007 50.0998 98.1007 47.8998L98.0007 47.7998ZM94.0007 53.0997H88.0007V59.7998H94.4008C97.3008 59.7998 99.1007 58.4998 99.1007 56.3998C99.1007 54.2998 97.4007 53.0997 94.0007 53.0997Z" fill="#1761AB"/>
<path d="M104.101 57.7C104.101 54.7 106.601 53.1 110.101 53.1C113.601 53.1 113.201 53.3 114.401 53.7V53.2C114.401 50.7 112.801 49.4 110.201 49.4C107.601 49.4 107.201 49.8 105.901 50.4L105.301 48.7C106.901 48 108.401 47.5 110.401 47.5C112.401 47.5 113.901 48 115.001 49.1C116.001 50.1 116.401 51.4 116.401 53.2V61.8H114.401V59.7C113.401 61 111.801 62.1 109.301 62.1C106.801 62.1 104.001 60.6 104.001 57.7H104.101ZM114.501 56.6V55.2C113.501 54.9 112.101 54.6 110.401 54.6C107.801 54.6 106.301 55.7 106.301 57.5C106.301 59.3 107.901 60.4 109.801 60.4C111.701 60.4 114.501 58.8 114.501 56.6Z" fill="#1761AB"/>
<path d="M120.101 54.7999C120.101 50.7999 123.201 47.3999 127.301 47.3999C131.401 47.3999 131.601 48.4999 133.001 49.8999L131.601 51.3999C130.501 50.1999 129.201 49.2999 127.301 49.2999C124.401 49.2999 122.301 51.6999 122.301 54.7999C122.301 57.8999 124.501 60.2999 127.501 60.2999C130.501 60.2999 130.701 59.3998 131.801 58.1998L133.101 59.4999C131.701 61.0999 130.001 62.1998 127.301 62.1998C123.201 62.1998 120.101 58.7999 120.101 54.8999V54.7999Z" fill="#1761AB"/>
<path d="M136.5 41.8999H138.6V55.6998L146.2 47.7999H148.8L142.9 53.8999L149 61.9999H146.5L141.4 55.3999L138.5 58.2999V61.9999H136.4V42.0999L136.5 41.8999Z" fill="#1761AB"/>
<path d="M101.601 21.5997H93.7007C90.8007 21.5997 88.9008 23.4998 88.9008 26.4998C88.9008 29.4998 90.6007 30.9998 93.7007 30.9998H97.2007V33.0997H93.7007C89.7007 33.0997 86.8008 30.4998 86.8008 26.3998C86.8008 22.2998 88.7007 20.5998 91.5007 19.8998C90.9007 18.9998 90.7007 17.7998 90.7007 16.4998C90.7007 12.8998 92.8007 10.2998 96.2007 10.2998C99.6007 10.2998 101.001 11.7997 101.501 14.0997L99.4008 14.2998C99.1008 12.4998 98.0007 11.6997 96.2007 11.6997C94.4007 11.6997 92.8008 13.3998 92.8008 16.4998C92.8008 19.5998 93.2007 18.7998 94.0007 19.7998H101.601V21.7998V21.5997Z" fill="#1761AB"/>
<path d="M118.901 28.4996H115.001C114.401 31.3996 112.501 32.8996 109.301 33.0996V31.1996H109.601C111.401 31.1996 112.601 30.2996 113.001 28.4996H109.901C108.301 28.4996 107.001 27.8996 106.001 26.6996C105.001 25.4996 104.501 23.9996 104.501 22.0996C104.501 20.1996 105.001 18.6996 106.101 17.4996C107.201 16.2996 108.501 15.5996 110.201 15.5996C113.301 15.5996 115.301 17.4996 115.301 21.1996V26.3997H119.001V28.2997L118.901 28.4996ZM113.201 26.4996V20.5996C113.201 19.7996 112.901 19.0996 112.401 18.4996C111.801 17.8996 111.001 17.4996 110.001 17.4996C109.001 17.4996 108.101 17.9996 107.401 18.9996C106.801 19.8996 106.501 20.8997 106.501 21.8997C106.501 22.8997 106.801 23.9997 107.301 24.8997C107.901 25.9997 108.801 26.4996 109.901 26.4996H113.201Z" fill="#1761AB"/>
<path d="M137.701 25.6V28.4H118.201V26.4H135.301C135.301 26 135.301 25.7 135.301 25.4C135.301 20.6 132.801 17.9 128.401 17.9C124.001 17.9 124.201 18.8 123.101 20.7C122.801 20.4 122.301 19.8 121.401 19C123.001 17 125.301 16 128.401 16C134.001 16 137.701 19.7 137.701 25.6ZM129.901 32.7H127.901V30.3H129.901V32.7Z" fill="#1761AB"/>
<path d="M145.701 15.6996V26.0996C145.701 30.6996 143.901 32.8996 139.801 33.0996V31.1996C142.401 31.1996 143.701 29.7997 143.701 26.3997V15.5996H145.701V15.6996Z" fill="#1761AB"/>
<path d="M16.5002 71.7H56.1002C64.8002 71.7 71.9003 64.6 71.9003 55.9V16.3C71.9003 7.60005 64.8002 0.5 56.1002 0.5H16.5002C7.80024 0.5 0.700195 7.60005 0.700195 16.3V55.9C0.700195 64.6 7.80024 71.7 16.5002 71.7Z" fill="white"/>
<path d="M16.5007 71.1001H56.1007C64.5007 71.1001 71.3008 64.3001 71.3008 55.9001V16.3002C71.3008 7.90017 64.5007 1.1001 56.1007 1.1001H16.5007C8.10073 1.1001 1.30078 7.90017 1.30078 16.3002V55.9001C1.30078 64.3001 8.10073 71.1001 16.5007 71.1001Z" fill="url(#paint0_linear_3_3986)"/>
<path d="M56.1007 3.1001H16.5007C9.21057 3.1001 3.30078 9.01001 3.30078 16.3002V55.9001C3.30078 63.1903 9.21057 69.1001 16.5007 69.1001H56.1007C63.3909 69.1001 69.3008 63.1903 69.3008 55.9001V16.3002C69.3008 9.01001 63.3909 3.1001 56.1007 3.1001Z" fill="#1761AB"/>
<path style="mix-blend-mode:overlay" opacity="0.8" d="M7.50073 6.7002C5.30073 9.1002 3.90076 12.2002 3.90076 15.7002V55.3003C3.90076 62.6003 9.80071 68.5002 17.1007 68.5002H56.7007C60.2007 68.5002 63.3007 67.1003 65.7007 64.9003C63.3007 67.5003 59.9007 69.1002 56.1007 69.1002H16.5007C9.20073 69.1002 3.30078 63.2003 3.30078 55.9003V16.3003C3.30078 12.5003 4.90073 9.1002 7.50073 6.7002Z" fill="url(#paint1_linear_3_3986)"/>
<path style="mix-blend-mode:overlay" opacity="0.8" d="M33.5002 29.6999C33.1002 30.0999 32.8003 30.3999 32.8003 30.3999H53.5002C56.7002 30.3999 59.3003 32.9999 59.3003 36.1999C59.3003 37.5999 58.8003 38.8999 57.9003 39.8999C59.1003 38.7999 59.9003 37.2999 59.9003 35.4999C59.9003 32.2999 57.3002 29.6999 54.1002 29.6999H33.4003H33.5002ZM32.2002 14.6999C34.5002 12.3999 38.1003 12.3999 40.4003 14.6999C42.7003 16.9999 42.7003 20.5999 40.4003 22.8999C40.4003 22.8999 40.9002 22.3999 41.1002 22.1999C43.4002 19.8999 43.4002 16.2999 41.1002 13.9999C38.8002 11.6999 35.2003 11.6999 32.9003 13.9999L32.2002 14.6999ZM34.2002 41.8999H32.9003C32.9003 41.8999 39.2003 48.1999 40.4003 49.3999C42.5003 51.4999 42.6002 54.9999 40.7002 57.1999C40.8002 57.0999 40.9002 56.9999 41.1002 56.8999C43.4002 54.5999 43.4002 50.9999 41.1002 48.6999C40.1002 47.6999 34.3003 41.8999 34.3003 41.8999H34.2002Z" fill="url(#paint2_linear_3_3986)"/>
<path style="mix-blend-mode:multiply" opacity="0.4" d="M7.50073 6.7002C5.30073 9.1002 3.90076 12.2002 3.90076 15.7002V55.3003C3.90076 62.6003 9.80071 68.5002 17.1007 68.5002H56.7007C60.2007 68.5002 63.3007 67.1003 65.7007 64.9003C63.3007 67.5003 59.9007 69.1002 56.1007 69.1002H16.5007C9.20073 69.1002 3.30078 63.2003 3.30078 55.9003V16.3003C3.30078 12.5003 4.90073 9.1002 7.50073 6.7002Z" fill="url(#paint3_linear_3_3986)"/>
<path style="mix-blend-mode:multiply" opacity="0.4" d="M33.5002 29.6999C33.1002 30.0999 32.8003 30.3999 32.8003 30.3999H53.5002C56.7002 30.3999 59.3003 32.9999 59.3003 36.1999C59.3003 37.5999 58.8003 38.8999 57.9003 39.8999C59.1003 38.7999 59.9003 37.2999 59.9003 35.4999C59.9003 32.2999 57.3002 29.6999 54.1002 29.6999H33.4003H33.5002ZM32.2002 14.6999C34.5002 12.3999 38.1003 12.3999 40.4003 14.6999C42.7003 16.9999 42.7003 20.5999 40.4003 22.8999C40.4003 22.8999 40.9002 22.3999 41.1002 22.1999C43.4002 19.8999 43.4002 16.2999 41.1002 13.9999C38.8002 11.6999 35.2003 11.6999 32.9003 13.9999L32.2002 14.6999ZM34.2002 41.8999H32.9003C32.9003 41.8999 39.2003 48.1999 40.4003 49.3999C42.5003 51.4999 42.6002 54.9999 40.7002 57.1999C40.8002 57.0999 40.9002 56.9999 41.1002 56.8999C43.4002 54.5999 43.4002 50.9999 41.1002 48.6999C40.1002 47.6999 34.3003 41.8999 34.3003 41.8999H34.2002Z" fill="url(#paint4_linear_3_3986)"/>
<path d="M53.6007 30.3002C56.8007 30.3002 59.4008 32.9001 59.4008 36.1001C59.4008 39.3001 56.8007 41.9002 53.6007 41.9002H32.9008C32.9008 41.9002 39.2008 48.2002 40.4008 49.4002C42.7008 51.7002 42.7008 55.3001 40.4008 57.6001C38.1008 59.9001 34.5007 59.9001 32.2007 57.6001L14.9008 40.3002C12.6008 38.0002 12.6008 34.4001 14.9008 32.1001L32.2007 14.8002C34.5007 12.5002 38.1008 12.5002 40.4008 14.8002C42.7008 17.1002 42.7008 20.7001 40.4008 23.0001C39.2008 24.2001 32.9008 30.5001 32.9008 30.5001H53.6007V30.3002Z" fill="white"/>
<path style="mix-blend-mode:screen" opacity="0.9" d="M36.5006 43.2001H53.0006C54.9006 43.2001 56.7006 42.3001 57.9006 41.0001C56.8006 42.0001 55.3006 42.6001 53.7006 42.6001H35.9006L36.6006 43.3002L36.5006 43.2001ZM13.7006 41.3002L31.0006 58.6001C32.2006 59.8001 33.8006 60.5001 35.5006 60.5001C37.2006 60.5001 38.8006 59.8001 40.0006 58.6001C40.1006 58.5001 40.2007 58.4002 40.3007 58.3002C39.1007 59.3002 37.7006 59.9001 36.1006 59.9001C34.5006 59.9001 32.8006 59.2001 31.6006 58.0001L14.3007 40.7001C11.8007 38.2001 11.8007 34.1001 14.3007 31.6001L13.6006 32.3002C11.1006 34.8002 11.1006 38.9001 13.6006 41.4001L13.7006 41.3002Z" fill="url(#paint5_linear_3_3986)"/>
<path style="mix-blend-mode:screen" opacity="0.9" d="M67.9008 56.4998V16.8998C67.9008 9.99978 62.3008 4.39978 55.4008 4.39978H15.8008C12.5008 4.39978 9.50078 5.6998 7.30078 7.7998C9.60078 5.2998 12.9007 3.7998 16.5007 3.7998H56.1007C63.0007 3.7998 68.6007 9.3998 68.6007 16.2998V55.8998C68.6007 59.4998 67.1007 62.7997 64.6007 65.0997C66.7007 62.8997 68.0007 59.8997 68.0007 56.5997L67.9008 56.4998Z" fill="url(#paint6_linear_3_3986)"/>
<defs>
<linearGradient id="paint0_linear_3_3986" x1="66.8008" y1="5.6001" x2="5.80078" y2="66.6001" gradientUnits="userSpaceOnUse">
<stop offset="0.8" stop-color="#F9F9F9"/>
<stop offset="0.9" stop-color="#E8E8E8"/>
<stop offset="1" stop-color="#B3B3B3"/>
</linearGradient>
<linearGradient id="paint1_linear_3_3986" x1="51.0007" y1="79.6002" x2="-7.19932" y2="21.4003" gradientUnits="userSpaceOnUse">
<stop stop-color="#808080"/>
<stop offset="0.3" stop-color="#404040"/>
<stop offset="0.7" stop-color="#404040"/>
<stop offset="1" stop-color="#808080"/>
</linearGradient>
<linearGradient id="paint2_linear_3_3986" x1="51.6002" y1="46.2999" x2="26.1003" y2="20.7998" gradientUnits="userSpaceOnUse">
<stop stop-color="#808080"/>
<stop offset="0.3" stop-color="#404040"/>
<stop offset="0.7" stop-color="#404040"/>
<stop offset="1" stop-color="#808080"/>
</linearGradient>
<linearGradient id="paint3_linear_3_3986" x1="51.0007" y1="79.6002" x2="-7.19932" y2="21.4003" gradientUnits="userSpaceOnUse">
<stop stop-color="#808080"/>
<stop offset="0.3" stop-color="#404040"/>
<stop offset="0.7" stop-color="#404040"/>
<stop offset="1" stop-color="#808080"/>
</linearGradient>
<linearGradient id="paint4_linear_3_3986" x1="51.6002" y1="46.2999" x2="26.1003" y2="20.7998" gradientUnits="userSpaceOnUse">
<stop stop-color="#808080"/>
<stop offset="0.3" stop-color="#404040"/>
<stop offset="0.7" stop-color="#404040"/>
<stop offset="1" stop-color="#808080"/>
</linearGradient>
<linearGradient id="paint5_linear_3_3986" x1="46.7006" y1="52.1001" x2="20.3006" y2="25.7001" gradientUnits="userSpaceOnUse">
<stop stop-color="#808080"/>
<stop offset="0.3" stop-color="white"/>
<stop offset="0.7" stop-color="white"/>
<stop offset="1" stop-color="#808080"/>
</linearGradient>
<linearGradient id="paint6_linear_3_3986" x1="79.1007" y1="50.5997" x2="21.8008" y2="-6.70018" gradientUnits="userSpaceOnUse">
<stop stop-color="#808080"/>
<stop offset="0.3" stop-color="white"/>
<stop offset="0.7" stop-color="white"/>
<stop offset="1" stop-color="#808080"/>
</linearGradient>
</defs>
</svg>
