<svg width="441" height="152" viewBox="0 0 441 152" fill="none" xmlns="http://www.w3.org/2000/svg">
<path d="M341.101 38.1997L307.701 119.5H273.301L324.201 3.09961H340.801" fill="#1DADEB"/>
<path d="M0.601562 61.5991V61.2988C0.601562 27.9988 25.7014 0.699219 61.7014 0.699219C97.7014 0.699219 97.0014 8.09883 107.901 18.7988L91.5015 37.6992C82.5015 29.4992 73.3015 24.499 61.5015 24.499C41.7015 24.499 27.5015 40.899 27.5015 60.999V61.2988C27.5015 81.3988 41.4015 98.0991 61.5015 98.0991C81.6015 98.0991 83.1015 92.6989 92.3015 84.3989L108.701 100.999C96.7014 113.899 83.3014 121.899 60.7014 121.899C26.2014 121.899 0.601562 95.2991 0.601562 61.5991Z" fill="#182550"/>
<path d="M116.602 61.5991V61.2988C116.602 27.9988 142.901 0.699219 179.001 0.699219C215.101 0.699219 241.102 27.599 241.102 60.999V61.2988C241.102 94.5988 214.801 121.899 178.701 121.899C142.601 121.899 116.602 94.9991 116.602 61.5991ZM214.201 61.5991V61.2988C214.201 41.1988 199.501 24.499 178.701 24.499C157.901 24.499 143.501 40.899 143.501 60.999V61.2988C143.501 81.3988 158.201 98.0991 179.001 98.0991C199.801 98.0991 214.201 81.6991 214.201 61.5991Z" fill="#182550"/>
<path d="M253.801 2.69922H299.501C336.301 2.69922 361.801 27.999 361.801 60.999V61.2988C361.801 94.2988 336.401 119.899 299.501 119.899H253.801V2.69922ZM279.601 25.8989V96.499H299.501C320.601 96.499 334.801 82.299 334.801 61.499V61.1992C334.801 40.3992 320.601 25.8989 299.501 25.8989H279.601Z" fill="#182550"/>
<path d="M414.301 119.4V3H440.401V119.4H414.301Z" fill="#005CB9"/>
<path d="M340.801 3.09961H357.401L408.401 119.5H374.501L341.101 38.1997" fill="#1DADEB"/>
<path d="M340.801 3.09961H324.201L312.701 29.2993C325.201 32.6993 331.601 44.3993 334.001 55.2993L341.001 38.1997L340.801 3.09961Z" fill="#1DADEB"/>
<path d="M1.80078 145.699C1.80078 142.199 4.40073 139.299 8.00073 139.299C11.6007 139.299 11.6008 140.099 12.8008 141.199L11.9006 142.199C10.9006 141.199 9.70073 140.499 8.00073 140.499C5.30073 140.499 3.20068 142.699 3.20068 145.499C3.20068 148.399 5.30073 150.599 8.00073 150.599C10.7007 150.599 10.8007 149.999 12.0007 148.799L12.9006 149.699C11.6006 150.999 10.2007 151.899 8.00073 151.899C4.50073 151.899 1.80078 149.099 1.80078 145.599V145.699Z" fill="#182550"/>
<path d="M15.3008 139.5H24.2007V140.8H16.7007V145H23.4006V146.3H16.7007V150.6H24.3008V151.9H15.3008V139.6V139.5Z" fill="#182550"/>
<path d="M27 139.5H28.3999V150.5H35.3V151.8H27V139.5Z" fill="#182550"/>
<path d="M37.9004 139.5H39.3005V150.5H46.2004V151.8H37.9004V139.5Z" fill="#182550"/>
<path d="M53.5 145.699C53.5 142.299 56 139.299 59.8 139.299C63.6 139.299 66.1001 142.199 66.1001 145.599C66.1001 148.999 63.6 151.999 59.8 151.999C56 151.999 53.5 149.099 53.5 145.699ZM64.6001 145.699C64.6001 142.899 62.6 140.599 59.8 140.599C57 140.599 55 142.799 55 145.599C55 148.399 57 150.699 59.8 150.699C62.6 150.699 64.6001 148.499 64.6001 145.699Z" fill="#182550"/>
<path d="M69 139.5H77.8V140.8H70.3999V145.2H77.1001V146.5H70.3999V151.9H69V139.6V139.5Z" fill="#182550"/>
<path d="M85.8008 139.5H90.1008C94.0008 139.5 96.6008 142.2 96.6008 145.6C96.6008 149.1 93.9008 151.8 90.1008 151.8H85.8008V139.5ZM87.2007 140.8V150.5H90.1008C93.2008 150.5 95.2007 148.4 95.2007 145.7C95.2007 142.9 93.2008 140.8 90.1008 140.8H87.2007Z" fill="#182550"/>
<path d="M103.301 139.398H104.601L110.201 151.798H108.701L107.301 148.599H100.601L99.1013 151.798H97.7012L103.301 139.398ZM106.701 147.298L103.901 140.999L101.101 147.298H106.701Z" fill="#182550"/>
<path d="M114.201 140.8H110.102V139.5H119.802V140.8H115.701V151.8H114.302V140.8H114.201Z" fill="#182550"/>
<path d="M125.401 139.398H126.701L132.301 151.798H130.801L129.401 148.599H122.701L121.201 151.798H119.801L125.401 139.398ZM128.801 147.298L126.001 140.999L123.201 147.298H128.801Z" fill="#182550"/>
<path d="M144.5 139.398H145.801L151.4 151.798H149.9L148.5 148.599H141.801L140.301 151.798H138.9L144.5 139.398ZM147.9 147.298L145.101 140.999L142.301 147.298H147.9Z" fill="#182550"/>
<path d="M153.801 139.5H155.101L162.801 149.4V139.5H164.201V151.8H163.101L155.201 141.7V151.8H153.801V139.5Z" fill="#182550"/>
<path d="M167.701 139.5H172.001C175.901 139.5 178.501 142.2 178.501 145.6C178.501 149.1 175.801 151.8 172.001 151.8H167.701V139.5ZM169.101 140.8V150.5H172.001C175.101 150.5 177.101 148.4 177.101 145.7C177.101 142.9 175.101 140.8 172.001 140.8H169.101Z" fill="#182550"/>
<path d="M191.301 139.398H192.601L198.201 151.798H196.701L195.301 148.599H188.601L187.101 151.798H185.701L191.301 139.398ZM194.701 147.298L191.901 140.999L189.101 147.298H194.701Z" fill="#182550"/>
<path d="M200.602 139.5H201.901L209.602 149.4V139.5H211.001V151.8H209.901L202.001 141.7V151.8H200.602V139.5Z" fill="#182550"/>
<path d="M219 139.398H220.301L225.9 151.798H224.4L223 148.599H216.301L214.801 151.798H213.4L219 139.398ZM222.4 147.298L219.601 140.999L216.801 147.298H222.4Z" fill="#182550"/>
<path d="M228.301 139.5H229.701V150.5H236.601V151.8H228.301V139.5Z" fill="#182550"/>
<path d="M240.801 146.9L235.701 139.5H237.401L241.501 145.6L245.701 139.5H247.301L242.201 146.9V151.8H240.801V146.9Z" fill="#182550"/>
<path d="M252.801 140.8H248.701V139.5H258.401V140.8H254.301V151.8H252.901V140.8H252.801Z" fill="#182550"/>
<path d="M261 139.5H262.4V151.8H261V139.5Z" fill="#182550"/>
<path d="M265.5 145.699C265.5 142.199 268.1 139.299 271.7 139.299C275.3 139.299 275.3 140.099 276.5 141.199L275.6 142.199C274.6 141.199 273.4 140.499 271.7 140.499C269 140.499 266.9 142.699 266.9 145.499C266.9 148.399 269 150.599 271.7 150.599C274.4 150.599 274.5 149.999 275.7 148.799L276.6 149.699C275.3 150.999 273.9 151.899 271.7 151.899C268.2 151.899 265.5 149.099 265.5 145.599V145.699Z" fill="#182550"/>
<path d="M283.5 139.398H284.801L290.4 151.798H288.9L287.5 148.599H280.801L279.301 151.798H277.9L283.5 139.398ZM286.9 147.298L284.101 140.999L281.301 147.298H286.9Z" fill="#182550"/>
<path d="M292.9 139.5H294.301V150.5H301.2V151.8H292.9V139.5Z" fill="#182550"/>
<path d="M309.102 139.5H310.501V151.8H309.102V139.5Z" fill="#182550"/>
<path d="M314.102 139.5H315.401L323.102 149.4V139.5H324.501V151.8H323.401L315.501 141.7V151.8H314.102V139.5Z" fill="#182550"/>
<path d="M331.201 140.8H327.102V139.5H336.802V140.8H332.701V151.8H331.302V140.8H331.201Z" fill="#182550"/>
<path d="M339.4 139.5H348.301V140.8H340.801V145H347.5V146.3H340.801V150.6H348.4V151.9H339.4V139.6V139.5Z" fill="#182550"/>
<path d="M351.102 139.5H352.501V150.5H359.401V151.8H351.102V139.5Z" fill="#182550"/>
<path d="M362 139.5H363.4V150.5H370.3V151.8H362V139.5Z" fill="#182550"/>
<path d="M373 139.5H374.4V151.8H373V139.5Z" fill="#182550"/>
<path d="M377.5 145.699C377.5 142.299 380 139.299 383.7 139.299C387.4 139.299 387.1 139.899 388.3 140.899L387.4 141.999C386.5 141.199 385.4 140.599 383.7 140.599C381 140.599 379 142.899 379 145.599C379 148.599 380.9 150.699 383.9 150.699C386.9 150.699 386.6 150.199 387.4 149.499V146.399H383.7V145.199H388.8V150.099C387.7 151.099 385.9 151.999 383.9 151.999C380 151.999 377.6 149.199 377.6 145.699H377.5Z" fill="#182550"/>
<path d="M391.801 139.5H400.701V140.8H393.201V145H399.901V146.3H393.201V150.6H400.801V151.9H391.801V139.6V139.5Z" fill="#182550"/>
<path d="M403.5 139.5H404.8L412.5 149.4V139.5H413.9V151.8H412.8L404.9 141.7V151.8H403.5V139.5Z" fill="#182550"/>
<path d="M416.9 145.699C416.9 142.199 419.501 139.299 423.101 139.299C426.701 139.299 426.7 140.099 427.9 141.199L427 142.199C426 141.199 424.801 140.499 423.101 140.499C420.401 140.499 418.301 142.699 418.301 145.499C418.301 148.399 420.401 150.599 423.101 150.599C425.801 150.599 425.901 149.999 427.101 148.799L428 149.699C426.7 150.999 425.301 151.899 423.101 151.899C419.601 151.899 416.9 149.099 416.9 145.599V145.699Z" fill="#182550"/>
<path d="M430.4 139.5H439.301V140.8H431.801V145H438.5V146.3H431.801V150.6H439.4V151.9H430.4V139.6V139.5Z" fill="#182550"/>
</svg>
