<svg width="299" height="81" viewBox="0 0 299 81" fill="none" xmlns="http://www.w3.org/2000/svg">
<path d="M295.4 3.7002V77.5H3.10004V3.7002H295.4ZM298.4 0.700195H0.100037V80.5H298.4V0.700195Z" fill="#FF3500"/>
<path d="M110.5 51.5V29.7002C110.5 29.7002 110.5 29.5 110.7 29.5H121.2C124.8 29.5 127.2 32.5 127.2 36C127.2 39.5 126.1 39.6003 124.7 40.3003C124.5 40.3003 124.5 40.6001 124.7 40.6001C126.2 41.4001 127.7 43.1002 127.7 45.2002C127.7 49.0002 125.1 51.7002 121.2 51.7002H110.7C110.7 51.7002 110.5 51.7 110.5 51.5ZM123.4 36C123.4 34.5 122.5 33 120.8 33H114.4C114.4 33 114.3 33.0001 114.3 33.1001V38.5C114.3 38.5 114.3 38.7002 114.5 38.7002H120.7C122.1 38.7002 123.5 37.5 123.5 36H123.4ZM123.9 45.2002C123.9 43.7002 122.5 42.2002 120.9 42.2002H114.5C114.5 42.2002 114.3 42.2004 114.3 42.4004V48.1001C114.3 48.1001 114.3 48.3003 114.5 48.3003H120.7C122.4 48.3003 124 46.8003 124 45.3003L123.9 45.2002Z" fill="white"/>
<path d="M129.2 51.5L136.5 29.8003C136.5 29.8003 136.6 29.6001 136.7 29.6001H141.7C141.7 29.6001 141.9 29.6003 141.9 29.8003L149.2 51.5C149.2 51.5 149.2 51.7002 149 51.7002H145.4C145.4 51.7002 145.2 51.7 145.2 51.5L143.8 47.3003C143.8 47.3003 143.7 47.1001 143.6 47.1001H134.7C134.7 47.1001 134.5 47.1003 134.5 47.3003L133.1 51.5C133.1 51.5 133 51.7002 132.9 51.7002H129.3C129.2 51.7002 129.1 51.6 129.1 51.5H129.2ZM142.6 43.5L139.3 33.1001C139.3 32.9001 139 32.9001 139 33.1001L135.7 43.5C135.7 43.5 135.7 43.7002 135.8 43.7002H142.5C142.5 43.7002 142.6 43.7 142.5 43.5H142.6Z" fill="white"/>
<path d="M149.8 40.9004C149.8 34.3004 153.1 29.3003 159.7 29.3003C166.3 29.3003 169 34.9003 169 36.8003C169 38.7003 169 37 168.8 37H165.2C165.2 37 165 37.0003 165 36.8003C164.7 35.9003 163.6 32.7002 159.6 32.7002C155.6 32.7002 153.6 36.1003 153.6 40.8003C153.6 45.5003 155.8 48.5 159.6 48.5C163.4 48.5 164.8 45.2004 165 44.4004C165 44.4004 165 44.2002 165.2 44.2002H168.8C168.9 44.2002 169 44.2004 169 44.4004C169 45.8004 167.1 51.9004 159.7 51.9004C152.3 51.9004 149.8 47.4002 149.8 40.7002V40.9004Z" fill="white"/>
<path d="M172.5 51.5V29.7002C172.5 29.7002 172.5 29.5 172.7 29.5H176.2C176.2 29.5 176.4 29.5002 176.4 29.7002V38.2002C176.4 38.2002 176.5 38.4002 176.6 38.2002L185.2 29.7002C185.2 29.7002 185.4 29.6001 185.5 29.6001H190.1C190.3 29.6001 190.3 29.8004 190.2 29.9004L181.6 38.5C181.6 38.5 181.6 38.6002 181.6 38.7002L190.1 51.5C190.1 51.6 190.1 51.8003 190 51.8003H186C185.9 51.8003 185.8 51.6 185.7 51.5L179 41.3003C179 41.3003 178.9 41.3003 178.8 41.3003L176.7 43.5C176.6 43.6 176.5 43.7003 176.5 43.8003V51.6001C176.5 51.6001 176.5 51.8003 176.3 51.8003H172.8C172.8 51.8003 172.6 51.8001 172.6 51.6001L172.5 51.5Z" fill="white"/>
</svg>
