<svg width="79" height="79" viewBox="0 0 79 79" fill="none" xmlns="http://www.w3.org/2000/svg">
<path d="M39.4 78.7002V72.8999H18.8001C24.8001 76.5999 31.9 78.7002 39.4 78.7002Z" fill="#47BCA0"/>
<path d="M39.4 0C31.8 0 24.8001 2.10029 18.8001 5.80029H39.4V0Z" fill="#47BCA0"/>
<path d="M39.4 60.5V18.3003H6.20001C5.00001 20.1003 3.99991 22.1001 3.09991 24.1001H24.8001C21.4001 27.3001 19.1 31.6 18.4 36.5H0.0999146C0.0999146 37.5 6.10364e-05 38.3999 6.10364e-05 39.3999C6.10364e-05 40.3999 -8.54507e-05 41.4003 0.0999146 42.3003H18.4C19.1 47.1003 21.4001 51.5002 24.8001 54.7002H3.09991C3.99991 56.7002 5.00001 58.7 6.20001 60.5H39.4Z" fill="#47BCA0"/>
<path d="M39.4 60.5C51.1 60.5 60.5001 50.9999 60.5001 39.3999C60.5001 27.7999 51 18.3003 39.4 18.3003V0.100098C61.1 0.100098 78.7 17.6999 78.7 39.3999C78.7 61.0999 61.1 78.7002 39.4 78.7002V60.5Z" fill="white"/>
</svg>
