<svg width="212" height="24" viewBox="0 0 212 24" fill="none" xmlns="http://www.w3.org/2000/svg">
<path d="M111.5 12.5C111.5 5.8 115 0.900391 121.5 0.900391C128 0.900391 130.4 6.10039 130.6 7.90039C130.6 7.90039 130.6 8.1001 130.4 8.1001H127.6C127.6 8.1001 127.4 8.10039 127.4 7.90039C127 6.80039 125.5 3.6001 121.5 3.6001C117.5 3.6001 114.7 7.1 114.7 12.5C114.7 17.9 117.1 21.2002 121.5 21.2002C125.9 21.2002 127.1 17.9003 127.5 16.8003C127.5 16.8003 127.5 16.6001 127.7 16.6001H130.5C130.5 16.6001 130.7 16.6003 130.7 16.8003C130.5 18.4003 128.3 23.8003 121.6 23.8003C114.9 23.8003 111.6 19.1004 111.6 12.4004L111.5 12.5Z" fill="#F1EDE9"/>
<path d="M132.8 15.6001C132.8 10.6001 135.7 7.2002 140.7 7.2002C145.7 7.2002 148.6 10.6001 148.6 15.6001C148.6 20.6001 145.6 24 140.7 24C135.8 24 132.8 20.6001 132.8 15.6001ZM145.6 15.6001C145.6 12.2001 143.8 9.90039 140.7 9.90039C137.6 9.90039 135.8 12.2001 135.8 15.6001C135.8 19.0001 137.6 21.3003 140.7 21.3003C143.8 21.3003 145.6 19.0001 145.6 15.6001Z" fill="#F1EDE9"/>
<path d="M151.9 23.5V7.7002C151.9 7.7002 151.9 7.5 152.1 7.5H154.4C154.5 7.5 154.6 7.5002 154.7 7.7002L155 9.1001C155 9.3001 155.2 9.3001 155.3 9.1001C156 8.3001 157.1 7.2002 159.4 7.2002H161C161 7.2002 161.2 7.20039 161.2 7.40039V10C161.2 10 161.2 10.2002 161 10.2002H159.3C156.3 10.2002 155.1 11.9003 155.1 14.8003V23.5C155.1 23.5 155.1 23.7002 154.9 23.7002H152.2C152.2 23.7002 152 23.7 152 23.5H151.9Z" fill="#F1EDE9"/>
<path d="M161.8 15.6001C161.8 10.6001 164.9 7.2002 169.6 7.2002C174.3 7.2002 177.3 10.6001 177.3 15.6001C177.3 20.6001 177.3 16.4001 177.2 16.6001C177.2 16.6001 177.2 16.8003 177 16.8003H165.2C165.2 16.8003 165 16.8 165 17C165 19.3 166.7 21.4004 169.5 21.4004C172.3 21.4004 172.7 20.6004 173.3 19.4004C173.3 19.4004 173.4 19.2002 173.6 19.2002H176.5C176.5 19.2002 176.7 19.2004 176.7 19.4004C175.8 22.4004 173.1 24 169.5 24C165.9 24 161.7 20.6001 161.7 15.6001H161.8ZM174 14C174 12.2 172.7 9.90039 169.5 9.90039C166.3 9.90039 165 12.5 165 14C165 15.5 165 14.2002 165.1 14.2002H173.8C173.8 14.2002 174 14.2 174 14Z" fill="#F1EDE9"/>
<path d="M189.2 23.5V18.7002C189.2 18.7002 189.2 18.5 189 18.5H178.7C178.7 18.5 178.5 18.5003 178.5 18.3003V16C178.5 15.8 178.5 15.7001 178.6 15.6001L188.7 1.40039C188.7 1.40039 188.8 1.2002 188.9 1.2002H191.9C191.9 1.2002 192.1 1.20039 192.1 1.40039V15.6001C192.1 15.6001 192.1 15.8003 192.3 15.8003H195.8C195.8 15.8003 196 15.8 196 16V18.4004C196 18.4004 196 18.6001 195.8 18.6001H192.3C192.3 18.6001 192.1 18.6003 192.1 18.8003V23.6001C192.1 23.6001 192.1 23.8003 191.9 23.8003H189.2C189.2 23.8003 189 23.8001 189 23.6001L189.2 23.5ZM189.2 15.6001V6.1001C189.2 5.9001 189 5.9001 188.9 6.1001L182.2 15.6001C182.2 15.8001 182.2 15.9004 182.2 15.9004H189C189 15.9004 189.2 15.9002 189.2 15.7002V15.6001Z" fill="#F1EDE9"/>
<path d="M196.8 23.5V21.2002C196.8 21.0002 196.8 20.9003 197 20.8003L206 12.1001C206.7 11.4001 208.6 9.6002 208.5 7.7002C208.5 6.0002 207.3 3.7002 204.3 3.7002C201.3 3.7002 200.2 5.5002 200.2 7.7002C200.2 9.9002 200.2 7.90039 200 7.90039H197.3C197.3 7.90039 197.1 7.9002 197.1 7.7002C197.1 3.6002 200.2 1 204.2 1C208.2 1 211.4 3.9002 211.4 7.7002C211.4 11.5002 209.3 12.9001 208 14.1001L201 20.7002V21H211.1C211.1 21 211.3 21.0002 211.3 21.2002V23.6001C211.3 23.6001 211.3 23.8003 211.1 23.8003H196.7C196.7 23.8003 196.5 23.8001 196.5 23.6001L196.8 23.5Z" fill="#F1EDE9"/>
<path d="M0.200012 12.4004H81.6" stroke="#F1EDE9" stroke-miterlimit="10"/>
</svg>
