<svg width="511" height="152" viewBox="0 0 511 152" fill="none" xmlns="http://www.w3.org/2000/svg">
<path d="M46.9 20.5C57.9 20.5 66.9 28 69.2 38.3H92.4C91.2 27.6 86.4 18.7 77.8 11.7C69.2 4.79995 58.9 1.3999 46.8 1.3999C34.7 1.3999 22.1 5.5001 13.3 13.6001C4.40005 21.9001 0 32.1999 0 44.8999C0 57.5999 4.40005 67.9001 13.3 76.1001C22.1 84.2001 33.3 88.3 46.8 88.3C60.3 88.3 69.2 84.9 77.8 78C86.4 71.1 91.1 62.3001 92.4 51.6001H69.4C67.1 61.9001 58 69.2 47 69.2C36 69.2 23.5 59 23.5 45C23.5 31 33.1 20.6001 47 20.6001L46.9 20.5Z" fill="#191C1A"/>
<path d="M225 21.7V3.1001H202.2V86.8H225V46.5C225 31.6 237.3 22.5 256.4 22.5V0.5C242.2 0.5 231.2 8.30005 225 21.8V21.7Z" fill="#191C1A"/>
<path d="M304.2 1.2998C290.7 1.2998 279.5 5.39976 270.7 13.4998C261.8 21.7998 257.4 32.0998 257.4 44.7998C257.4 57.4998 261.8 67.7998 270.7 75.9998C279.5 84.0998 290.7 88.1997 304.2 88.1997C317.7 88.1997 324.5 85.2997 333 79.3997C341.4 73.4997 346.8 65.9997 349.3 56.8997H326.3C323 64.4997 314.4 70.2998 304.4 70.2998C294.4 70.2998 283 62.6997 280.2 51.6997H350.2C350.7 49.7997 350.9 47.5999 350.9 45.0999C350.7 32.3999 346.3 21.8999 337.6 13.5999C328.8 5.49985 317.8 1.39966 304.3 1.39966L304.2 1.2998ZM281.1 34.8997C284.8 25.3997 293.7 19.2998 304.4 19.2998C315.1 19.2998 325.1 25.5997 328.6 34.8997H281.1Z" fill="#191C1A"/>
<path d="M424.7 2.5H409.2L368.1 58.3V67.5H411.7V86.6001H424.7V67.5H440.1V57H424.7V2.3999V2.5ZM411.8 57.1001H381.3L411.9 16.5V57.1001H411.8Z" fill="#191C1A"/>
<path d="M462.9 76.2C463 74.7 463.3 73.4001 463.8 72.1001C464.8 69.5001 468.2 66.5 469.7 65C470.5 64.3 472.1 63.2 474.5 61.7C476.9 60.2 478.4 59.2999 479 58.8999C479.6 58.4999 481.5 57.3999 484.4 55.8999C491.8 51.5999 495.6 49.1001 501.1 44.1001C506.5 39.1001 509.2 32.9999 509.2 25.8999C509.2 18.7999 506.4 12.9 501 8.30005C495.6 3.80005 488.5 1.5 480.1 1.5C471.7 1.5 464.5 3.8001 458.9 8.6001C453.4 13.3001 450.3 19.7999 450 27.8999H462.5C463.1 17.7999 470.3 12 479.9 12C489.5 12 496.4 18.0001 496.4 26.6001C496.4 35.2001 488.8 42.4 474.9 50.3C471.6 52.1 469.1 53.6 467.5 54.7C465.9 55.8 463.6 57.4 460.7 59.7C457.8 62 455.7 64.2999 454.3 66.3999C451.3 70.7999 448.5 77.8001 448.5 85.6001V86.8H510.6V76.3H463L462.9 76.2Z" fill="#191C1A"/>
<path d="M147.4 88.2998V81.7998H123.8C130.7 85.8998 138.8 88.2998 147.4 88.2998Z" fill="#57B99F"/>
<path d="M147.4 1.2998C138.7 1.2998 130.7 3.6998 123.8 7.7998H147.4V1.2998Z" fill="#57B99F"/>
<path d="M147.4 68.1001V21.3999H109.4C108 23.3999 106.9 25.5999 105.9 27.8999H130.7C126.8 31.4999 124.2 36.2001 123.4 41.6001H102.5C102.5 42.7001 102.4 43.7 102.4 44.8C102.4 45.9 102.4 47 102.5 48H123.4C124.2 53.4 126.8 58.1 130.7 61.7H105.9C106.9 64 108.1 66.1 109.4 68.2H147.4V68.1001Z" fill="#57B99F"/>
<path d="M147.4 68.1997C160.8 68.1997 171.6 57.6998 171.6 44.7998C171.6 31.8998 160.8 21.3997 147.4 21.3997V1.2998C172.3 1.2998 192.4 20.7998 192.4 44.7998C192.4 68.7998 172.2 88.2998 147.4 88.2998V68.1997Z" fill="#191C1A"/>
<path d="M224.6 142.6L221 133.5L219 136.8H208.9L206.6 142.5H202L213.4 115H217.7L229 142.5H224.5L224.6 142.6ZM220.7 132.9L215.7 120.2L210.7 132.9H220.8H220.7Z" fill="#191C1A"/>
<path d="M241.6 128.8C241.6 121 248.1 114.6 256 114.6C263.9 114.6 267.8 118.5 268.9 124.1H264.2C263.4 121 260 118.7 256 118.7C250.3 118.7 246 123.2 246 128.8C246 134.4 250.3 139 255.9 139C261.5 139 264.2 136.2 265 131.7H252.8L254.9 128.1H269.5V129.3C269.5 137.4 263.2 143.1 255.7 143.1C248.2 143.1 241.4 136.7 241.4 128.9L241.6 128.8Z" fill="#191C1A"/>
<path d="M286.9 136.7H272.8V133.3L286.3 115.1H291V133H296.2L294 136.7H291V142.6H287V136.7H286.9ZM286.9 133V120.3H286.8L277.4 133H286.9Z" fill="#191C1A"/>
<path d="M313.1 122.7C313.1 120.2 311.3 118.6 308.4 118.6C305.5 118.6 303.1 120.6 303 124.1H298.6C298.6 118.3 302.5 114.7 308.3 114.7C314.1 114.7 317.4 117.9 317.4 122.7C317.4 127.5 315 129.5 311.7 133.5L307.3 138.7H317.4V142.6H298.5L308.8 130.6C311.3 127.7 313.1 125.2 313.1 122.7Z" fill="#191C1A"/>
<path d="M331.3 128.8C331.3 121 337.6 114.6 345.6 114.6C353.6 114.6 357.9 118.6 359.1 125.5H354.6C353.8 121.3 349.9 118.7 345.7 118.7C341.5 118.7 335.8 123.2 335.8 128.8C335.8 134.4 340 138.9 345.7 138.9C351.4 138.9 353.8 136.2 354.6 132.2H359.1C358 139 352 143.1 345.6 143C337.5 143 331.3 136.6 331.3 128.8Z" fill="#191C1A"/>
<path d="M363.1 133.4C363.1 127.9 367.3 123.8 372.9 123.8C378.5 123.8 382.7 128 382.7 133.4C382.7 138.8 378.5 143.1 372.9 143.1C367.3 143.1 363.1 138.9 363.1 133.4ZM378.6 133.4C378.6 130 376.4 127.5 373 127.5C369.6 127.5 367.3 130.1 367.3 133.4C367.3 136.7 369.5 139.4 373 139.4C376.5 139.4 378.6 136.8 378.6 133.4Z" fill="#191C1A"/>
<path d="M387.4 124.2H390C390.9 124.2 391.4 124.7 391.4 125.6V127.1H391.6C392.5 125.1 394.7 123.8 397.3 123.8C399.9 123.8 402.1 125.1 403.2 127.5H403.3C404.4 125.2 406.8 123.8 409.7 123.8C413.9 123.8 416.6 126.7 416.6 131.5V142.7H412.5V132.6C412.5 129.2 411 127.6 408.6 127.6C406.2 127.6 404.1 129.5 404.1 132.7V142.7H400V132.6C400 129.2 398.5 127.6 396.1 127.6C393.7 127.6 391.6 129.5 391.6 132.7V142.7H387.5V124.3L387.4 124.2Z" fill="#191C1A"/>
<path d="M422 124.2H424.6C425.5 124.2 426 124.7 426 125.6V127H426.2C427.3 125 429.7 123.8 432.4 123.8C437.5 123.8 441.5 128 441.5 133.4C441.5 138.8 437.5 143.1 432.5 143.1C427.5 143.1 427.4 142 426.3 139.9H426.1V151.1H422V124.2ZM437.3 133.4C437.3 130 435.1 127.5 431.6 127.5C428.1 127.5 425.9 130.1 425.9 133.4C425.9 136.7 428.1 139.4 431.6 139.4C435.1 139.4 437.3 136.8 437.3 133.4Z" fill="#191C1A"/>
<path d="M444.5 133.4C444.5 127.9 448.5 123.8 453.6 123.8C458.7 123.8 458.8 124.9 459.9 127H460V125.6C460 124.7 460.5 124.2 461.5 124.2H464V142.6H460.3L460.1 139.9H460C458.9 141.9 456.5 143.1 453.7 143.1C448.6 143.1 444.6 138.9 444.6 133.4H444.5ZM460 133.4C460 130 457.8 127.5 454.3 127.5C450.8 127.5 448.6 130.1 448.6 133.4C448.6 136.7 450.8 139.4 454.3 139.4C457.8 139.4 460 136.8 460 133.4Z" fill="#191C1A"/>
<path d="M469.6 124.2H472.2C473.1 124.2 473.6 124.7 473.6 125.6V127.1H473.8C474.8 125 477.1 123.8 480 123.8C484.6 123.8 487.3 126.7 487.3 131.5V142.6H483.2V132.5C483.2 129.1 481.7 127.5 478.8 127.5C475.9 127.5 473.7 129.4 473.7 132.6V142.6H469.6V124.2Z" fill="#191C1A"/>
<path d="M490.3 124.2H494.7L500.1 138H500.2L505.9 124.2H510.3L498.5 151.1H494.1L498.9 140.2H496.9L490.3 124.2Z" fill="#191C1A"/>
</svg>
