<svg width="299" height="81" viewBox="0 0 299 81" fill="none" xmlns="http://www.w3.org/2000/svg">
<path d="M299 0.700195H0.700012V80.5H299V0.700195Z" fill="#FF3500"/>
<path d="M58.6 40.9004C58.6 34.3004 61.8999 29.3003 68.4999 29.3003C75.0999 29.3003 77.8 34.9003 77.8 36.8003C77.8 38.7003 77.8 37 77.6 37H73.9999C73.9999 37 73.8 37.0003 73.8 36.8003C73.5 35.9003 72.4 32.7002 68.4 32.7002C64.4 32.7002 62.4 36.1003 62.4 40.8003C62.4 45.5003 64.6 48.5 68.4 48.5C72.2 48.5 73.6 45.2004 73.8 44.4004C73.8 44.4004 73.7999 44.2002 73.9999 44.2002H77.6C77.7 44.2002 77.8 44.2004 77.8 44.4004C77.8 45.8004 75.8999 51.9004 68.4999 51.9004C61.0999 51.9004 58.6 47.4002 58.6 40.7002V40.9004Z" fill="white"/>
<path d="M80.4999 40.6001C80.4999 33.9001 83.7999 29.2002 90.4999 29.2002C97.1999 29.2002 100.5 33.9001 100.5 40.6001C100.5 47.3001 97.1999 52 90.4999 52C83.7999 52 80.4999 47.3001 80.4999 40.6001ZM96.4999 40.6001C96.4999 35.7001 94.3999 32.7002 90.4999 32.7002C86.5999 32.7002 84.4999 35.7001 84.4999 40.6001C84.4999 45.5001 86.5999 48.5 90.4999 48.5C94.3999 48.5 96.4999 45.5001 96.4999 40.6001Z" fill="white"/>
<path d="M104 51.5V29.7002C104 29.7002 104 29.5 104.2 29.5H108.8C108.8 29.5 109 29.5002 109.1 29.7002L117.7 46.2002C117.8 46.4002 118 46.3002 118 46.2002V29.7002C118 29.7002 118 29.5 118.2 29.5H121.7C121.7 29.5 121.9 29.5002 121.9 29.7002V51.5C121.9 51.5 121.9 51.7002 121.7 51.7002H117.1C117.1 51.7002 116.9 51.7 116.8 51.5L108.2 35C108.1 34.8 107.9 34.9 107.9 35V51.5C107.9 51.5 107.9 51.7002 107.7 51.7002H104.2C104.2 51.7002 104 51.7 104 51.5Z" fill="white"/>
<path d="M130.1 51.5V33.2002C130.1 33.2002 130.1 33 129.9 33H124.1C124.1 33 123.9 33.0003 123.9 32.8003V29.7002C123.9 29.7002 123.9 29.5 124.1 29.5H139.8C139.8 29.5 140 29.5002 140 29.7002V32.8003C140 32.8003 140 33 139.8 33H134C134 33 133.8 33.0002 133.8 33.2002V51.5C133.8 51.5 133.8 51.7002 133.6 51.7002H130.1C130.1 51.7002 129.9 51.7 129.9 51.5H130.1Z" fill="white"/>
<path d="M138.5 51.5L145.8 29.8003C145.8 29.8003 145.9 29.6001 146 29.6001H151C151 29.6001 151.2 29.6003 151.2 29.8003L158.5 51.5C158.5 51.5 158.5 51.7002 158.3 51.7002H154.7C154.7 51.7002 154.5 51.7 154.5 51.5L153.1 47.3003C153.1 47.3003 153 47.1001 152.9 47.1001H144C144 47.1001 143.8 47.1003 143.8 47.3003L142.4 51.5C142.4 51.5 142.3 51.7002 142.2 51.7002H138.6C138.5 51.7002 138.4 51.6 138.4 51.5H138.5ZM151.9 43.5L148.6 33.1001C148.6 32.9001 148.3 32.9001 148.3 33.1001L145 43.5C145 43.5 145 43.7002 145.1 43.7002H151.8C151.8 43.7002 151.9 43.7 151.8 43.5H151.9Z" fill="white"/>
<path d="M159.1 40.9004C159.1 34.3004 162.4 29.3003 169 29.3003C175.6 29.3003 178.3 34.9003 178.3 36.8003C178.3 38.7003 178.3 37 178.1 37H174.5C174.5 37 174.3 37.0003 174.3 36.8003C174 35.9003 172.9 32.7002 168.9 32.7002C164.9 32.7002 162.9 36.1003 162.9 40.8003C162.9 45.5003 165.1 48.5 168.9 48.5C172.7 48.5 174.1 45.2004 174.3 44.4004C174.3 44.4004 174.3 44.2002 174.5 44.2002H178.1C178.2 44.2002 178.3 44.2004 178.3 44.4004C178.3 45.8004 176.4 51.9004 169 51.9004C161.6 51.9004 159.1 47.4002 159.1 40.7002V40.9004Z" fill="white"/>
<path d="M185.6 51.5V33.2002C185.6 33.2002 185.6 33 185.4 33H179.6C179.6 33 179.4 33.0003 179.4 32.8003V29.7002C179.4 29.7002 179.4 29.5 179.6 29.5H195.3C195.3 29.5 195.5 29.5002 195.5 29.7002V32.8003C195.5 32.8003 195.5 33 195.3 33H189.5C189.5 33 189.3 33.0002 189.3 33.2002V51.5C189.3 51.5 189.3 51.7002 189.1 51.7002H185.6C185.6 51.7002 185.4 51.7 185.4 51.5H185.6Z" fill="white"/>
<path d="M204.3 44V29.7002C204.3 29.7002 204.3 29.5 204.5 29.5H208C208 29.5 208.2 29.5002 208.2 29.7002V44C208.2 46.3 210.1 48.5 212.4 48.5C214.7 48.5 216.6 46.3 216.6 44V29.7002C216.6 29.7002 216.6 29.5 216.8 29.5H220.3C220.3 29.5 220.5 29.5002 220.5 29.7002V44C220.5 48.4 216.9 52 212.5 52C208.1 52 204.5 48.5 204.5 44H204.3Z" fill="white"/>
<path d="M223.7 45.6001C223.7 45.6001 223.7 45.4004 223.9 45.4004H227.5C227.5 45.4004 227.7 45.4001 227.7 45.6001C227.7 47.1001 229.7 48.5 232.4 48.5C235.1 48.5 237 47.0002 237 45.2002C237 43.4002 235.7 42.5002 232.4 42.2002C227.2 41.8002 223.9 40.2003 223.9 35.8003C223.9 31.4003 227.8 29.3003 231.7 29.3003C235.6 29.3003 239.7 31.6002 239.7 35.7002C239.7 39.8002 239.7 35.9004 239.5 35.9004H235.9C235.9 35.9004 235.7 35.9002 235.7 35.7002C235.7 34.3002 234.2 32.8003 231.6 32.8003C229 32.8003 227.7 34.2004 227.7 35.9004C227.7 37.6004 230.1 38.3 232.2 38.5C235.5 38.9 240.7 39.6003 240.7 45.3003C240.7 51.0003 237.5 52.1001 232.2 52.1001C226.9 52.1001 223.6 48.7002 223.6 45.7002L223.7 45.6001Z" fill="white"/>
</svg>
