<svg width="442" height="90" viewBox="0 0 442 90" fill="none" xmlns="http://www.w3.org/2000/svg">
<path d="M0.400391 1.30078H12.7007C22.6007 1.30078 29.4004 8.10098 29.4004 17.001C29.4004 26.001 22.6007 32.8008 12.7007 32.8008H0.400391V1.30078ZM7.30029 7.60107V26.6011H12.7007C18.4007 26.6011 22.2007 22.8012 22.2007 17.2012C22.2007 11.5012 18.4007 7.60107 12.7007 7.60107H7.30029Z" fill="#1C2654"/>
<path d="M44.1016 1.10156H50.5015L64.0015 32.8013H56.8013L53.9014 25.7017H40.6016L37.7017 32.8013H30.6016L44.1016 1.10156ZM51.4014 19.6016L47.2017 9.40137L43.0015 19.6016H51.4014Z" fill="#1C2654"/>
<path d="M72.1001 7.70117H62.5V1.30078H88.6001V7.70117H79V32.8008H72.1001V7.70117Z" fill="#1C2654"/>
<path d="M100.701 1.10156H107.101L120.601 32.8013H113.401L110.501 25.7017H97.2012L94.3008 32.8013H87.2012L100.701 1.10156ZM108.001 19.6016L103.801 9.40137L99.6011 19.6016H108.001Z" fill="#1C2654"/>
<path d="M156.501 29.8008C153.901 31.9008 150.901 33.3008 147.301 33.3008C141.301 33.3008 136.701 29.8012 136.701 24.2012C136.701 20.1012 138.901 17.301 142.801 15.501C141.301 13.301 140.601 11.4012 140.601 9.20117C140.601 4.80117 144.101 0.800781 150.101 0.800781C156.101 0.800781 159.001 4.30117 159.001 8.70117C159.001 13.0012 156.301 15.501 152.401 17.001L156.601 21.2012C157.601 19.6012 158.701 17.7008 159.701 15.8008L164.801 18.6011C163.601 20.8011 162.201 23.1008 160.701 25.3008L165.301 29.9009L160.201 33.501L156.601 29.8008H156.501ZM152.601 25.8008L146.601 19.7012C144.501 20.8012 143.701 22.3008 143.701 23.8008C143.701 26.1008 145.501 27.6011 148.101 27.6011C150.701 27.6011 151.201 26.9008 152.601 25.8008ZM153.001 9.20117C153.001 7.30117 151.801 6.20117 150.001 6.20117C148.201 6.20117 146.901 7.50088 146.901 9.40088C146.901 10.9009 147.401 11.9009 148.701 13.4009C151.401 12.4009 152.901 11.2012 152.901 9.20117H153.001Z" fill="#1C2654"/>
<path d="M181.6 28.2012L185.7 23.3008C188.5 25.6008 191.5 27.1011 195.1 27.1011C198.7 27.1011 199.6 26.0011 199.6 24.1011C199.6 22.3011 198.5 21.401 193.3 20.001C187 18.401 182.9 16.6009 182.9 10.4009C182.9 4.60088 187.5 0.800781 193.9 0.800781C200.3 0.800781 202.4 2.20078 205.6 4.80078L202 10.001C199.2 8.10098 196.5 6.90088 193.8 6.90088C191.1 6.90088 189.8 8.10107 189.8 9.60107C189.8 11.8011 191.1 12.4008 196.6 13.8008C203 15.5008 206.6 17.8008 206.6 23.3008C206.6 29.6008 201.8 33.2012 195 33.2012C188.2 33.2012 185.4 31.5012 181.6 28.2012Z" fill="#1C2654"/>
<path d="M219.2 7.70117H209.6V1.30078H235.7V7.70117H226.1V32.8008H219.2V7.70117Z" fill="#1C2654"/>
<path d="M247.801 1.10156H254.201L267.701 32.8013H260.501L257.601 25.7017H244.301L241.401 32.8013H234.301L247.801 1.10156ZM255.101 19.6016L250.901 9.40137L246.701 19.6016H255.101Z" fill="#1C2654"/>
<path d="M275.901 7.70117H266.301V1.30078H292.401V7.70117H282.801V32.8008H275.901V7.70117Z" fill="#1C2654"/>
<path d="M298 1.30078H304.9V32.8008H298V1.30078Z" fill="#1C2654"/>
<path d="M310.6 28.2012L314.7 23.3008C317.5 25.6008 320.5 27.1011 324.1 27.1011C327.7 27.1011 328.6 26.0011 328.6 24.1011C328.6 22.3011 327.5 21.401 322.3 20.001C316 18.401 311.9 16.6009 311.9 10.4009C311.9 4.60088 316.5 0.800781 322.9 0.800781C329.3 0.800781 331.4 2.20078 334.6 4.80078L331 10.001C328.2 8.10098 325.5 6.90088 322.8 6.90088C320.1 6.90088 318.8 8.10107 318.8 9.60107C318.8 11.8011 320.1 12.4008 325.6 13.8008C332 15.5008 335.6 17.8008 335.6 23.3008C335.6 29.6008 330.8 33.2012 324 33.2012C317.2 33.2012 314.4 31.5012 310.6 28.2012Z" fill="#1C2654"/>
<path d="M348.301 7.70117H338.701V1.30078H364.801V7.70117H355.201V32.8008H348.301V7.70117Z" fill="#1C2654"/>
<path d="M370.4 1.30078H377.3V32.8008H370.4V1.30078Z" fill="#1C2654"/>
<path d="M383.801 17.2012C383.801 8.20117 390.601 0.800781 400.201 0.800781C409.801 0.800781 409.701 2.80117 412.601 5.70117L408.201 10.8008C405.801 8.60078 403.301 7.20117 400.101 7.20117C394.801 7.20117 391.001 11.601 391.001 17.001C391.001 22.501 394.701 27.001 400.101 27.001C405.501 27.001 405.901 25.6008 408.401 23.3008L412.801 27.8008C409.601 31.3008 406.001 33.4009 399.901 33.4009C390.601 33.4009 383.701 26.2012 383.701 17.2012H383.801Z" fill="#1C2654"/>
<path d="M416.301 28.2012L420.401 23.3008C423.201 25.6008 426.201 27.1011 429.801 27.1011C433.401 27.1011 434.301 26.0011 434.301 24.1011C434.301 22.3011 433.201 21.401 428.001 20.001C421.701 18.401 417.601 16.6009 417.601 10.4009C417.601 4.60088 422.201 0.800781 428.601 0.800781C435.001 0.800781 437.101 2.20078 440.301 4.80078L436.701 10.001C433.901 8.10098 431.201 6.90088 428.501 6.90088C425.801 6.90088 424.501 8.10107 424.501 9.60107C424.501 11.8011 425.801 12.4008 431.301 13.8008C437.701 15.5008 441.301 17.8008 441.301 23.3008C441.301 29.6008 436.501 33.2012 429.701 33.2012C422.901 33.2012 420.101 31.5012 416.301 28.2012Z" fill="#1C2654"/>
<path d="M24 57.1016H30.3999L43.8999 88.8013H36.7002L33.7998 81.7017H20.5L17.6001 88.8013H10.5L24 57.1016ZM31.2998 75.6016L27.1001 65.4014L22.8999 75.6016H31.2998Z" fill="#1C2654"/>
<path d="M52.1001 63.7012H42.5V57.3008H68.6001V63.7012H59V88.8008H52.1001V63.7012Z" fill="#1C2654"/>
<path d="M96.3008 76.4009L84.2012 57.3008H92.3008L99.8008 69.9009L107.401 57.3008H115.301L103.201 76.2012V88.8008H96.3008V76.4009Z" fill="#1C2654"/>
<path d="M115.5 73.2012C115.5 64.2012 122.6 56.8008 132.3 56.8008C142 56.8008 149 64.001 149 73.001C149 82.001 141.9 89.4009 132.2 89.4009C122.5 89.4009 115.5 82.2012 115.5 73.2012ZM141.8 73.2012C141.8 67.7012 137.8 63.2012 132.3 63.2012C126.8 63.2012 122.9 67.601 122.9 73.001C122.9 78.501 126.9 83.001 132.4 83.001C137.9 83.001 141.9 78.6012 141.9 73.2012H141.8Z" fill="#1C2654"/>
<path d="M154.701 75.3008V57.3008H161.601V75.1011C161.601 80.2011 164.201 82.9009 168.401 82.9009C172.601 82.9009 175.201 80.3008 175.201 75.3008V57.3008H182.101V75.1011C182.101 84.6011 176.701 89.3008 168.301 89.3008C159.901 89.3008 154.701 84.6008 154.701 75.3008Z" fill="#1C2654"/>
<path d="M189.201 57.3008H203.601C207.601 57.3008 210.701 58.401 212.801 60.501C214.601 62.301 215.501 64.7012 215.501 67.7012C215.501 72.9012 212.801 76.1011 208.701 77.6011L216.401 88.8008H208.301L201.501 78.7012H196.101V88.8008H189.201V57.3008ZM203.101 72.6011C206.501 72.6011 208.401 70.8011 208.401 68.1011C208.401 65.0011 206.301 63.501 203.001 63.501H196.101V72.501H203.101V72.6011Z" fill="#1C2654"/>
<path d="M235.201 57.3008H248.101C255.601 57.3008 260.201 61.8012 260.201 68.2012C260.201 75.6012 254.501 79.4009 247.501 79.4009H242.201V88.8008H235.301V57.3008H235.201ZM247.601 73.2012C251.101 73.2012 253.101 71.1009 253.101 68.4009C253.101 65.2009 250.901 63.501 247.501 63.501H242.101V73.1011H247.601V73.2012Z" fill="#1C2654"/>
<path d="M265.301 57.3008H279.701C283.701 57.3008 286.801 58.401 288.901 60.501C291.001 62.601 291.601 64.7012 291.601 67.7012C291.601 72.9012 288.901 76.1011 284.801 77.6011L292.501 88.8008H284.401L277.601 78.7012H272.201V88.8008H265.301V57.3008ZM279.201 72.6011C282.601 72.6011 284.501 70.8011 284.501 68.1011C284.501 65.0011 282.401 63.501 279.101 63.501H272.201V72.501H279.201V72.6011Z" fill="#1C2654"/>
<path d="M296.4 73.2012C296.4 64.2012 303.5 56.8008 313.2 56.8008C322.9 56.8008 329.9 64.001 329.9 73.001C329.9 82.001 322.8 89.4009 313.1 89.4009C303.4 89.4009 296.4 82.2012 296.4 73.2012ZM322.7 73.2012C322.7 67.7012 318.7 63.2012 313.2 63.2012C307.7 63.2012 303.8 67.601 303.8 73.001C303.8 78.501 307.8 83.001 313.3 83.001C318.8 83.001 322.8 78.6012 322.8 73.2012H322.7Z" fill="#1C2654"/>
<path d="M336.1 57.3008H343.6L351.9 70.6011L360.2 57.3008H367.7V88.8008H360.8V68.2012L351.9 81.7012H351.7L342.9 68.4009V88.8008H336.1V57.3008Z" fill="#1C2654"/>
<path d="M375.1 57.3008H388C395.5 57.3008 400.1 61.8012 400.1 68.2012C400.1 75.6012 394.4 79.4009 387.4 79.4009H382.1V88.8008H375.2V57.3008H375.1ZM387.5 73.2012C391 73.2012 393 71.1009 393 68.4009C393 65.2009 390.8 63.501 387.4 63.501H382V73.1011H387.5V73.2012Z" fill="#1C2654"/>
<path d="M412.5 63.7012H402.9V57.3008H429V63.7012H419.4V88.8008H412.5V63.7012Z" fill="#1C2654"/>
</svg>
