<svg width="349" height="89" viewBox="0 0 349 89" fill="none" xmlns="http://www.w3.org/2000/svg">
<path d="M115.4 0.298828H127.7C137.6 0.298828 144.4 7.09902 144.4 15.999C144.4 24.999 137.6 31.7988 127.7 31.7988H115.4V0.298828ZM122.3 6.59912V25.5991H127.7C133.4 25.5991 137.2 21.7992 137.2 16.1992C137.2 10.4992 133.4 6.59912 127.7 6.59912H122.3Z" fill="#1C2654"/>
<path d="M159.1 0.0996094H165.5L179 31.7993H171.8L168.9 24.6997H155.6L152.7 31.7993H145.6L159.1 0.0996094ZM166.4 18.5996L162.2 8.39941L158 18.5996H166.4Z" fill="#1C2654"/>
<path d="M187.2 6.69922H177.6V0.298828H203.7V6.69922H194.1V31.7988H187.2V6.69922Z" fill="#1C2654"/>
<path d="M215.801 0.0996094H222.201L235.701 31.7993H228.501L225.601 24.6997H212.301L209.401 31.7993H202.301L215.801 0.0996094ZM223.001 18.5996L218.801 8.39941L214.601 18.5996H223.001Z" fill="#1C2654"/>
<path d="M0.900391 56.2988H8.40039L16.7002 69.5991L25 56.2988H32.5V87.7988H25.5996V67.1992L16.7002 80.6992H16.5L7.7002 67.3989V87.7988H0.900391V56.2988Z" fill="#1C2654"/>
<path d="M50.8008 56.0996H57.2012L70.7012 87.7993H63.501L60.6006 80.6997H47.3008L44.4014 87.7993H37.3008L50.8008 56.0996ZM58.1006 74.5996L53.9014 64.3994L49.7012 74.5996H58.1006Z" fill="#1C2654"/>
<path d="M75.5 56.2988H89.9004C93.9004 56.2988 96.9996 57.399 99.0996 59.499C100.9 61.299 101.8 63.6992 101.8 66.6992C101.8 71.8992 99.1 75.0991 95 76.5991L102.7 87.7988H94.5996L87.7998 77.6992H82.4004V87.7988H75.5V56.2988ZM89.5 71.5991C92.9 71.5991 94.7998 69.7991 94.7998 67.0991C94.7998 63.9991 92.7004 62.499 89.4004 62.499H82.5V71.499H89.5V71.5991Z" fill="#1C2654"/>
<path d="M108 56.2988H114.9V70.0991L127.7 56.2988H136.1L123.3 69.6992L136.7 87.7988H128.4L118.6 74.3989L115 78.1992V87.7988H108.1V56.2988H108Z" fill="#1C2654"/>
<path d="M140.9 56.2988H164.7V62.499H147.8V68.8989H162.6V75.0991H147.8V81.6992H164.9V87.8989H140.9V56.3989V56.2988Z" fill="#1C2654"/>
<path d="M178.401 62.6992H168.801V56.2988H194.901V62.6992H185.301V87.7988H178.401V62.6992Z" fill="#1C2654"/>
<path d="M200.199 56.2988H213.099C220.599 56.2988 225.199 60.7992 225.199 67.1992C225.199 74.5992 219.499 78.3989 212.499 78.3989H207.199V87.7988H200.299V56.2988H200.199ZM212.599 72.1992C216.099 72.1992 218.099 70.0989 218.099 67.3989C218.099 64.1989 215.899 62.499 212.499 62.499H207.099V72.0991H212.599V72.1992Z" fill="#1C2654"/>
<path d="M230.301 56.2988H237.201V81.499H252.901V87.7988H230.301V56.2988Z" fill="#1C2654"/>
<path d="M268.9 56.0996H275.3L288.8 87.7993H281.6L278.7 80.6997H265.4L262.5 87.7993H255.4L268.9 56.0996ZM276.2 74.5996L272 64.3994L267.8 74.5996H276.2Z" fill="#1C2654"/>
<path d="M290.299 72.1992C290.299 63.1992 297.099 55.7988 306.699 55.7988C316.299 55.7988 316.199 57.7992 319.099 60.6992L314.699 65.7988C312.299 63.5988 309.799 62.1992 306.599 62.1992C301.299 62.1992 297.499 66.599 297.499 71.999C297.499 77.499 301.199 81.999 306.599 81.999C311.999 81.999 312.399 80.5988 314.899 78.2988L319.299 82.7988C316.099 86.2988 312.499 88.3989 306.399 88.3989C297.099 88.3989 290.199 81.1992 290.199 72.1992H290.299Z" fill="#1C2654"/>
<path d="M324.9 56.2988H348.7V62.499H331.8V68.8989H346.6V75.0991H331.8V81.6992H348.9V87.8989H324.9V56.3989V56.2988Z" fill="#1C2654"/>
</svg>
