<svg width="442" height="89" viewBox="0 0 442 89" fill="none" xmlns="http://www.w3.org/2000/svg">
<path d="M147.199 0.298828H159.499C169.399 0.298828 176.199 7.09902 176.199 15.999C176.199 24.999 169.399 31.7988 159.499 31.7988H147.199V0.298828ZM154.199 6.59912V25.5991H159.599C165.299 25.5991 169.099 21.7992 169.099 16.1992C169.099 10.4992 165.299 6.59912 159.599 6.59912H154.199Z" fill="#1C2654"/>
<path d="M181.9 18.2988V0.298828H188.8V18.0991C188.8 23.1991 191.401 25.8989 195.601 25.8989C199.801 25.8989 202.4 23.2988 202.4 18.2988V0.298828H209.3V18.0991C209.3 27.5991 203.9 32.2988 195.5 32.2988C187.1 32.2988 181.9 27.5988 181.9 18.2988Z" fill="#1C2654"/>
<path d="M216.5 0.298828H231.1C234.7 0.298828 237.5 1.29912 239.3 3.09912C241.1 4.89912 241.5 6.29902 241.5 8.49902C241.5 12.099 239.6 14.0989 237.4 15.3989C241 16.7989 243.3 18.8991 243.3 23.0991C243.3 28.8991 238.6 31.7988 231.5 31.7988H216.5V0.298828ZM234.6 9.59912C234.6 7.49912 233 6.39893 230.1 6.39893H223.3V13.0991H229.7C232.8 13.0991 234.7 12.0988 234.7 9.79883L234.6 9.59912ZM231.2 18.7988H223.2V25.6992H231.4C234.5 25.6992 236.3 24.5988 236.3 22.2988C236.3 20.0988 234.7 18.7988 231.2 18.7988Z" fill="#1C2654"/>
<path d="M259.699 0.0996094H266.099L279.599 31.7993H272.399L269.499 24.6997H256.199L253.299 31.7993H246.199L259.699 0.0996094ZM266.999 18.5996L262.799 8.39941L258.599 18.5996H266.999Z" fill="#1C2654"/>
<path d="M284.801 0.298828H291.701V31.7988H284.801V0.298828Z" fill="#1C2654"/>
<path d="M0.5 56.2988H13.3999C20.8999 56.2988 25.5 60.7992 25.5 67.1992C25.5 74.5992 19.7998 78.3989 12.7998 78.3989H7.5V87.7988H0.600098V56.2988H0.5ZM12.8999 72.1992C16.3999 72.1992 18.3999 70.0989 18.3999 67.3989C18.3999 64.1989 16.1998 62.499 12.7998 62.499H7.3999V72.0991H12.8999V72.1992Z" fill="#1C2654"/>
<path d="M29.1992 72.1992C29.1992 63.1992 36.299 55.7988 45.999 55.7988C55.699 55.7988 62.6992 62.999 62.6992 71.999C62.6992 80.999 55.5989 88.3989 45.8989 88.3989C36.1989 88.3989 29.1992 81.1992 29.1992 72.1992ZM55.3989 72.1992C55.3989 66.6992 51.3989 62.1992 45.8989 62.1992C40.3989 62.1992 36.499 66.599 36.499 71.999C36.499 77.499 40.499 81.999 45.999 81.999C51.499 81.999 55.499 77.5992 55.499 72.1992H55.3989Z" fill="#1C2654"/>
<path d="M68.8008 56.2988H81.7012C89.2012 56.2988 93.8008 60.7992 93.8008 67.1992C93.8008 74.5992 88.1011 78.3989 81.1011 78.3989H75.8008V87.7988H68.9009V56.2988H68.8008ZM81.3008 72.1992C84.8008 72.1992 86.8008 70.0989 86.8008 67.3989C86.8008 64.1989 84.6012 62.499 81.2012 62.499H75.8008V72.0991H81.3008V72.1992Z" fill="#1C2654"/>
<path d="M98.4004 74.2988V56.2988H105.3V74.0991C105.3 79.1991 107.901 81.8989 112.101 81.8989C116.301 81.8989 118.9 79.2988 118.9 74.2988V56.2988H125.8V74.0991C125.8 83.5991 120.4 88.2988 112 88.2988C103.6 88.2988 98.4004 83.5988 98.4004 74.2988Z" fill="#1C2654"/>
<path d="M132.9 56.2988H139.8V81.499H155.5V87.7988H132.9V56.2988Z" fill="#1C2654"/>
<path d="M171.6 56.0996H178L191.5 87.7993H184.299L181.399 80.6997H168.1L165.2 87.7993H158.1L171.6 56.0996ZM178.899 74.5996L174.7 64.3994L170.5 74.5996H178.899Z" fill="#1C2654"/>
<path d="M199.6 62.6992H190V56.2988H216.1V62.6992H206.5V87.7988H199.6V62.6992Z" fill="#1C2654"/>
<path d="M221.699 56.2988H228.599V87.7988H221.699V56.2988Z" fill="#1C2654"/>
<path d="M235.199 72.1992C235.199 63.1992 242.299 55.7988 251.999 55.7988C261.699 55.7988 268.699 62.999 268.699 71.999C268.699 80.999 261.599 88.3989 251.899 88.3989C242.199 88.3989 235.199 81.1992 235.199 72.1992ZM261.399 72.1992C261.399 66.6992 257.399 62.1992 251.899 62.1992C246.399 62.1992 242.499 66.599 242.499 71.999C242.499 77.499 246.499 81.999 251.999 81.999C257.499 81.999 261.499 77.5992 261.499 72.1992H261.399Z" fill="#1C2654"/>
<path d="M274.801 56.2988H281.201L296.001 75.6992V56.2988H302.801V87.7988H296.901L281.601 67.7988V87.7988H274.801V56.2988Z" fill="#1C2654"/>
<path d="M323.801 56.2988H330.201L345.001 75.6992V56.2988H351.801V87.7988H345.901L330.601 67.7988V87.7988H323.801V56.2988Z" fill="#1C2654"/>
<path d="M358 72.1992C358 63.1992 365.1 55.7988 374.8 55.7988C384.5 55.7988 391.5 62.999 391.5 71.999C391.5 80.999 384.4 88.3989 374.7 88.3989C365 88.3989 358 81.1992 358 72.1992ZM384.2 72.1992C384.2 66.6992 380.2 62.1992 374.7 62.1992C369.2 62.1992 365.3 66.599 365.3 71.999C365.3 77.499 369.3 81.999 374.8 81.999C380.3 81.999 384.3 77.5992 384.3 72.1992H384.2Z" fill="#1C2654"/>
<path d="M393.401 56.2988H400.801L407.301 77.5991L414.401 56.1992H420.301L427.401 77.5991L433.901 56.2988H441.101L430.301 87.999H424.301L417.201 67.3989L410.101 87.999H404.101L393.301 56.2988H393.401Z" fill="#1C2654"/>
</svg>
