<svg width="654" height="115" viewBox="0 0 654 115" fill="none" xmlns="http://www.w3.org/2000/svg">
<path d="M4.49994 0.910156H0.919922V114.27H4.49994V0.910156ZM65.3499 0.910156H52.2199V114.27H65.3499V0.910156ZM121.44 0.910156H101.15V114.27H121.44V0.910156ZM497.73 0.910156H148.63V114.27H497.73V0.910156ZM544.49 0.910156H524.2V114.27H544.49V0.910156ZM593.42 0.910156H580.29V114.27H593.42V0.910156ZM653.08 0.910156H649.5V114.27H653.08V0.910156Z" fill="#24E08F"/>
<path d="M175.35 54.6901C175.35 41.9501 182.35 32.8301 194.49 32.8301C204.94 32.8301 210.07 38.08 212.06 44.97C212.12 45.15 212 45.3901 211.76 45.3901H204.64C204.1 45.3901 203.98 45.15 203.92 44.97C202.11 41.29 198.49 39.48 194.5 39.48C187.25 39.48 182.91 45.5201 182.91 54.7001C182.91 63.8801 187.02 69.92 194.5 69.92C200.48 69.92 206.27 66.9001 206.27 58.8701V58.2701C206.27 58.0901 206.21 58.0301 206.03 58.0301H194.74C194.56 58.0301 194.5 57.91 194.5 57.73V51.7501C194.5 51.5701 194.56 51.4501 194.74 51.4501H212.61C212.79 51.4501 212.91 51.5701 212.91 51.7501V75.72C212.91 75.9 212.79 75.9601 212.61 75.9601H207.18C207 75.9601 206.88 75.96 206.82 75.72L206.22 72.5801C206.16 72.3401 205.92 72.2201 205.62 72.4601C202.78 74.7501 199.4 76.5701 194.51 76.5701C182.37 76.5701 175.37 67.5101 175.37 54.7101L175.35 54.6901Z" fill="#191C1A"/>
<path d="M217.319 60.6691C217.319 51.1891 223.239 44.7891 232.049 44.7891C240.859 44.7891 246.779 51.2491 246.779 60.6691C246.779 61.8791 246.599 62.6591 246.479 63.1491C246.419 63.3291 246.359 63.4491 246.179 63.4491H225.169C224.989 63.4491 224.869 63.5691 224.869 63.7491C224.869 67.0691 227.769 69.9091 232.059 69.9091C234.719 69.9091 236.889 69.2491 237.919 67.1891C237.979 67.0691 238.099 66.8891 238.399 66.8891H245.459C245.639 66.8891 245.819 67.0091 245.759 67.2491C244.309 73.0491 238.939 76.5491 232.049 76.5491C223.229 76.5491 217.319 70.0891 217.319 60.6691ZM239.049 57.1591C239.049 54.7391 236.999 51.4191 232.049 51.4191C227.099 51.4191 224.859 54.7991 224.859 57.1591C224.859 57.3391 224.919 57.3991 225.099 57.3991H238.809C238.989 57.3991 239.049 57.3391 239.049 57.1591Z" fill="#191C1A"/>
<path d="M252.88 67.4306V52.0306C252.88 51.8506 252.76 51.7306 252.58 51.7306H247.63C247.45 51.7306 247.33 51.6106 247.33 51.4306V45.6906C247.33 45.5106 247.45 45.3906 247.63 45.3906H252.58C252.76 45.3906 252.88 45.2706 252.88 45.0906V36.9406C252.88 36.7606 253 36.6406 253.18 36.6406H259.82C260 36.6406 260.12 36.7606 260.12 36.9406V45.0906C260.12 45.2706 260.24 45.3906 260.42 45.3906H266.58C266.76 45.3906 266.88 45.5106 266.88 45.6906V51.4306C266.88 51.6106 266.76 51.7306 266.58 51.7306H260.42C260.24 51.7306 260.12 51.8506 260.12 52.0306V67.3706C260.12 68.5806 261.09 69.3006 262.29 69.3006H266.58C266.76 69.3006 266.88 69.4206 266.88 69.6006V75.6406C266.88 75.8206 266.76 75.9406 266.58 75.9406H261.87C255.53 75.9406 252.87 73.4606 252.87 67.4306H252.88Z" fill="#191C1A"/>
<path d="M280.84 65.9193C280.84 65.7393 280.96 65.6193 281.14 65.6193H288.08C288.26 65.6193 288.38 65.7393 288.38 65.9193C288.38 67.8493 290.25 69.8993 294.6 69.8993C297.14 69.8993 300.76 69.4193 300.76 66.4593C300.76 63.7993 297.08 63.7993 294.6 63.5593C288.38 62.9593 281.38 61.8093 281.38 54.1993C281.38 49.0093 286.45 44.7793 294 44.7793C301.55 44.7793 307.22 48.3992 307.22 55.4092C307.22 55.5892 307.16 55.7093 306.98 55.7093H300.22C300.04 55.7093 299.92 55.5892 299.92 55.4092C299.92 53.7192 298.41 51.4293 294 51.4293C290.38 51.4293 288.63 52.6393 288.63 54.2093C288.63 56.1393 291.23 56.4993 294 56.8693C299.31 57.5293 308.01 57.8992 308.01 66.4692C308.01 72.9292 302.82 76.5493 294.61 76.5493C285.61 76.5493 280.84 71.3593 280.84 65.9193Z" fill="#191C1A"/>
<path d="M314.06 67.4306V52.0306C314.06 51.8506 313.94 51.7306 313.76 51.7306H308.81C308.63 51.7306 308.51 51.6106 308.51 51.4306V45.6906C308.51 45.5106 308.63 45.3906 308.81 45.3906H313.76C313.94 45.3906 314.06 45.2706 314.06 45.0906V36.9406C314.06 36.7606 314.18 36.6406 314.36 36.6406H321C321.18 36.6406 321.3 36.7606 321.3 36.9406V45.0906C321.3 45.2706 321.42 45.3906 321.6 45.3906H327.76C327.94 45.3906 328.06 45.5106 328.06 45.6906V51.4306C328.06 51.6106 327.94 51.7306 327.76 51.7306H321.6C321.42 51.7306 321.3 51.8506 321.3 52.0306V67.3706C321.3 68.5806 322.27 69.3006 323.47 69.3006H327.76C327.94 69.3006 328.06 69.4206 328.06 69.6006V75.6406C328.06 75.8206 327.94 75.9406 327.76 75.9406H323.05C316.71 75.9406 314.05 73.4606 314.05 67.4306H314.06Z" fill="#191C1A"/>
<path d="M330.539 66.8195C330.539 61.6295 335.19 57.0395 343.46 57.0395H348.83C350.04 57.0395 350.64 56.3195 350.64 55.7095C350.64 54.4395 350.519 51.4195 344.599 51.4195C340.009 51.4195 338.799 53.3495 338.799 55.3995C338.799 55.5795 338.68 55.6995 338.5 55.6995H331.919C331.739 55.6995 331.62 55.5795 331.62 55.3995C331.62 48.2795 337.479 44.7695 344.599 44.7695C352.929 44.7695 357.88 48.6895 357.88 56.2395V67.9495C357.88 69.1595 358.789 69.8795 360.049 69.8795H360.349C360.529 69.8795 360.65 69.9995 360.65 70.1795V75.6095C360.65 75.7895 360.529 75.9095 360.349 75.9095H357.87C354.73 75.9095 353.1 74.6995 351.95 73.0095C351.83 72.8295 351.469 72.9495 351.409 73.0095C349.959 74.4595 346.939 76.5095 342.169 76.5095C334.499 76.5095 330.52 72.2795 330.52 66.7895L330.539 66.8195ZM350.65 63.5595V63.3795C350.65 63.1995 350.529 63.0795 350.349 63.0795H343.77C338.7 63.0795 337.789 65.2495 337.789 66.8195C337.789 68.0895 338.88 69.8995 342.2 69.8995C348.3 69.8995 350.65 66.5195 350.65 63.5595Z" fill="#191C1A"/>
<path d="M364.899 75.6393V45.6893C364.899 45.5093 365.019 45.3893 365.139 45.3893H370.939C371.299 45.3893 371.419 45.4493 371.539 45.7493L372.139 47.5593C372.259 47.8593 372.499 47.8593 372.679 47.6793C374.429 45.9293 376.539 44.7793 379.379 44.7793H382.699C382.879 44.7793 382.999 44.8993 382.999 45.0793V51.4193C382.999 51.5993 382.879 51.7192 382.699 51.7192H378.779C374.069 51.7192 372.139 54.9192 372.139 58.5392V75.6293C372.139 75.8093 372.019 75.9293 371.839 75.9293H365.139C365.019 75.9293 364.899 75.8093 364.899 75.6293V75.6393Z" fill="#191C1A"/>
<path d="M388.94 67.4306V52.0306C388.94 51.8506 388.82 51.7306 388.64 51.7306H383.69C383.51 51.7306 383.39 51.6106 383.39 51.4306V45.6906C383.39 45.5106 383.51 45.3906 383.69 45.3906H388.64C388.82 45.3906 388.94 45.2706 388.94 45.0906V36.9406C388.94 36.7606 389.06 36.6406 389.24 36.6406H395.88C396.06 36.6406 396.18 36.7606 396.18 36.9406V45.0906C396.18 45.2706 396.3 45.3906 396.48 45.3906H402.64C402.82 45.3906 402.94 45.5106 402.94 45.6906V51.4306C402.94 51.6106 402.82 51.7306 402.64 51.7306H396.48C396.3 51.7306 396.18 51.8506 396.18 52.0306V67.3706C396.18 68.5806 397.15 69.3006 398.35 69.3006H402.64C402.82 69.3006 402.94 69.4206 402.94 69.6006V75.6406C402.94 75.8206 402.82 75.9406 402.64 75.9406H397.93C391.59 75.9406 388.93 73.4606 388.93 67.4306H388.94Z" fill="#191C1A"/>
<path d="M404.76 60.6691C404.76 51.1891 410.68 44.7891 419.49 44.7891C428.3 44.7891 434.22 51.2491 434.22 60.6691C434.22 61.8791 434.04 62.6591 433.92 63.1491C433.86 63.3291 433.8 63.4491 433.62 63.4491H412.61C412.43 63.4491 412.31 63.5691 412.31 63.7491C412.31 67.0691 415.21 69.9091 419.49 69.9091C422.15 69.9091 424.32 69.2491 425.35 67.1891C425.41 67.0691 425.53 66.8891 425.83 66.8891H432.89C433.07 66.8891 433.25 67.0091 433.19 67.2491C431.74 73.0491 426.37 76.5491 419.48 76.5491C410.66 76.5491 404.75 70.0891 404.75 60.6691H404.76ZM426.49 57.1591C426.49 54.7391 424.44 51.4191 419.49 51.4191C414.54 51.4191 412.31 54.7991 412.31 57.1591C412.31 57.3391 412.37 57.3991 412.55 57.3991H426.26C426.44 57.3991 426.5 57.3391 426.5 57.1591H426.49Z" fill="#191C1A"/>
<path d="M436.52 60.6694C436.52 51.2494 442.379 44.7894 450.349 44.7894C454.209 44.7894 456.989 46.4795 458.199 47.6895C458.439 47.9295 458.74 47.8095 458.74 47.5095V33.7394C458.74 33.5594 458.86 33.4395 459.04 33.4395H465.68C465.86 33.4395 465.979 33.5594 465.979 33.7394V75.6395C465.979 75.8195 465.86 75.9395 465.68 75.9395H459.939C459.579 75.9395 459.399 75.8795 459.339 75.6395L458.74 73.7095C458.68 73.4695 458.199 73.5895 458.079 73.7095C456.749 75.0395 453.429 76.5494 450.349 76.5494C441.839 76.5494 436.52 70.0894 436.52 60.6694ZM458.74 60.6694C458.74 54.6294 456.39 51.4294 451.56 51.4294C446.43 51.4294 443.77 55.2294 443.77 60.6694C443.77 66.1094 446.43 69.9094 451.56 69.9094C456.39 69.9094 458.74 66.1094 458.74 60.6694Z" fill="#191C1A"/>
</svg>
