<svg width="653" height="115" viewBox="0 0 653 115" fill="none" xmlns="http://www.w3.org/2000/svg">
<path d="M3.69995 0.799805H0.0999756V114.2H3.69995V0.799805ZM64.6 0.799805H51.5V114.2H64.6V0.799805ZM120.7 0.799805H100.4V114.2H120.7V0.799805ZM497 0.799805H147.9V114.2H497V0.799805ZM543.7 0.799805H523.4V114.2H543.7V0.799805ZM592.7 0.799805H579.6V114.2H592.7V0.799805ZM652.3 0.799805H648.7V114.2H652.3V0.799805Z" fill="#48DE93"/>
<path d="M192.335 47.8C191.863 46.3558 191.241 45.0617 190.469 43.9178C189.711 42.7595 188.803 41.7729 187.745 40.9578C186.701 40.1428 185.514 39.5207 184.185 39.0918C182.855 38.6628 181.396 38.4483 179.809 38.4483C177.207 38.4483 174.84 39.1204 172.71 40.4645C170.579 41.8086 168.884 43.7891 167.626 46.4058C166.368 49.0226 165.739 52.2328 165.739 56.0364C165.739 59.84 166.375 63.0501 167.648 65.6669C168.92 68.2837 170.643 70.2641 172.817 71.6082C174.99 72.9524 177.435 73.6244 180.152 73.6244C182.669 73.6244 184.885 73.0882 186.801 72.0158C188.732 70.929 190.233 69.399 191.306 67.4257C192.392 65.4381 192.936 63.1002 192.936 60.4119L194.566 60.7551H181.353V56.0364H198.084V60.7551C198.084 64.3728 197.311 67.5187 195.767 70.1926C194.237 72.8666 192.121 74.94 189.418 76.4128C186.73 77.8713 183.641 78.6006 180.152 78.6006C176.263 78.6006 172.845 77.6854 169.9 75.8551C166.968 74.0248 164.68 71.4223 163.036 68.0477C161.406 64.6731 160.591 60.6693 160.591 56.0364C160.591 52.5616 161.056 49.4373 161.985 46.6632C162.929 43.8749 164.259 41.5012 165.975 39.5422C167.69 37.5832 169.721 36.0818 172.066 35.0379C174.411 33.9941 176.992 33.4722 179.809 33.4722C182.126 33.4722 184.285 33.8225 186.287 34.5232C188.303 35.2095 190.097 36.189 191.67 37.4616C193.258 38.72 194.58 40.2285 195.638 41.9874C196.696 43.7319 197.426 45.6694 197.826 47.8H192.335ZM220.321 78.6864C217.146 78.6864 214.408 77.9857 212.106 76.5844C209.818 75.1687 208.052 73.1955 206.808 70.6645C205.578 68.1192 204.963 65.1593 204.963 61.7847C204.963 58.41 205.578 55.4358 206.808 52.8619C208.052 50.2738 209.782 48.2576 211.998 46.8134C214.229 45.3548 216.832 44.6256 219.806 44.6256C221.522 44.6256 223.216 44.9116 224.889 45.4835C226.562 46.0555 228.085 46.9849 229.458 48.2719C230.831 49.5445 231.924 51.2318 232.74 53.3338C233.555 55.4358 233.962 58.024 233.962 61.0983V63.2432H208.567V58.8676H228.814C228.814 57.0087 228.443 55.35 227.699 53.8915C226.97 52.433 225.926 51.2819 224.568 50.4382C223.223 49.5946 221.636 49.1727 219.806 49.1727C217.79 49.1727 216.045 49.6732 214.572 50.6741C213.114 51.6608 211.991 52.9477 211.205 54.5349C210.418 56.1222 210.025 57.8238 210.025 59.6398V62.5568C210.025 65.0449 210.454 67.154 211.312 68.8842C212.184 70.6001 213.393 71.9085 214.937 72.8094C216.481 73.6959 218.276 74.1392 220.321 74.1392C221.65 74.1392 222.852 73.9533 223.924 73.5815C225.011 73.1955 225.947 72.6235 226.734 71.8656C227.52 71.0935 228.128 70.1354 228.557 68.9915L233.447 70.3642C232.933 72.0229 232.067 73.4814 230.852 74.7398C229.637 75.9838 228.135 76.9562 226.348 77.6568C224.56 78.3432 222.551 78.6864 220.321 78.6864ZM255.99 45.0545V49.3443H238.917V45.0545H255.99ZM243.893 37.1614H248.955V68.5625C248.955 69.9924 249.162 71.0649 249.577 71.7798C250.006 72.4805 250.549 72.9524 251.207 73.1955C251.879 73.4242 252.587 73.5386 253.33 73.5386C253.888 73.5386 254.346 73.51 254.703 73.4528C255.061 73.3813 255.347 73.3241 255.561 73.2812L256.591 77.8284C256.247 77.9571 255.768 78.0858 255.154 78.2145C254.539 78.3575 253.759 78.429 252.816 78.429C251.386 78.429 249.984 78.1215 248.612 77.5067C247.253 76.8918 246.124 75.9552 245.223 74.6969C244.336 73.4385 243.893 71.8513 243.893 69.9352V37.1614ZM303.928 52.433L299.381 53.7199C299.095 52.962 298.673 52.2256 298.116 51.5107C297.572 50.7814 296.829 50.1808 295.885 49.7089C294.941 49.2371 293.733 49.0011 292.26 49.0011C290.244 49.0011 288.564 49.4659 287.22 50.3953C285.89 51.3105 285.225 52.4759 285.225 53.8915C285.225 55.1498 285.682 56.1436 286.598 56.8729C287.513 57.6021 288.943 58.2098 290.887 58.696L295.778 59.8972C298.723 60.6121 300.918 61.706 302.363 63.1788C303.807 64.6374 304.529 66.5177 304.529 68.8199C304.529 70.7074 303.986 72.3947 302.899 73.8818C301.826 75.3689 300.325 76.5415 298.394 77.3994C296.464 78.2574 294.219 78.6864 291.66 78.6864C288.299 78.6864 285.518 77.9571 283.316 76.4986C281.114 75.0401 279.72 72.9095 279.133 70.1068L283.938 68.9057C284.396 70.6788 285.261 72.0086 286.533 72.8952C287.82 73.7817 289.5 74.225 291.574 74.225C293.933 74.225 295.806 73.7245 297.193 72.7236C298.595 71.7083 299.295 70.4929 299.295 69.0773C299.295 67.9333 298.895 66.9753 298.094 66.2031C297.293 65.4167 296.064 64.8304 294.405 64.4443L288.914 63.1574C285.897 62.4424 283.681 61.3342 282.265 59.8328C280.864 58.3171 280.163 56.4224 280.163 54.1489C280.163 52.29 280.685 50.6455 281.729 49.2156C282.787 47.7857 284.224 46.6632 286.04 45.8482C287.87 45.0331 289.944 44.6256 292.26 44.6256C295.52 44.6256 298.08 45.3405 299.939 46.7705C301.812 48.2004 303.142 50.0879 303.928 52.433ZM326.476 45.0545V49.3443H309.403V45.0545H326.476ZM314.379 37.1614H319.441V68.5625C319.441 69.9924 319.649 71.0649 320.063 71.7798C320.492 72.4805 321.036 72.9524 321.693 73.1955C322.365 73.4242 323.073 73.5386 323.817 73.5386C324.374 73.5386 324.832 73.51 325.189 73.4528C325.547 73.3813 325.833 73.3241 326.047 73.2812L327.077 77.8284C326.734 77.9571 326.255 78.0858 325.64 78.2145C325.025 78.3575 324.246 78.429 323.302 78.429C321.872 78.429 320.471 78.1215 319.098 77.5067C317.74 76.8918 316.61 75.9552 315.709 74.6969C314.823 73.4385 314.379 71.8513 314.379 69.9352V37.1614ZM343.786 78.7722C341.698 78.7722 339.803 78.3789 338.102 77.5925C336.4 76.7917 335.049 75.6406 334.048 74.1392C333.047 72.6235 332.546 70.7932 332.546 68.6483C332.546 66.7608 332.918 65.2308 333.662 64.0582C334.405 62.8714 335.399 61.9419 336.643 61.2699C337.887 60.5978 339.26 60.0973 340.761 59.7685C342.277 59.4253 343.8 59.1536 345.33 58.9534C347.332 58.696 348.955 58.503 350.199 58.3743C351.457 58.2313 352.372 57.9954 352.944 57.6665C353.531 57.3376 353.824 56.7656 353.824 55.9506V55.779C353.824 53.6627 353.245 52.0183 352.086 50.8457C350.942 49.6732 349.205 49.0869 346.874 49.0869C344.458 49.0869 342.563 49.616 341.19 50.6741C339.818 51.7323 338.852 52.8619 338.295 54.0631L333.49 52.3472C334.348 50.3453 335.492 48.7866 336.922 47.6713C338.366 46.5417 339.939 45.7552 341.641 45.3119C343.357 44.8544 345.044 44.6256 346.703 44.6256C347.761 44.6256 348.976 44.7543 350.349 45.0116C351.736 45.2547 353.073 45.7624 354.36 46.5345C355.661 47.3067 356.741 48.4721 357.599 50.0307C358.457 51.5893 358.886 53.677 358.886 56.2937V78H353.824V73.5386H353.566C353.223 74.2536 352.651 75.0186 351.85 75.8337C351.05 76.6487 349.984 77.3422 348.655 77.9142C347.325 78.4862 345.702 78.7722 343.786 78.7722ZM344.558 74.225C346.56 74.225 348.247 73.8318 349.62 73.0453C351.007 72.2589 352.051 71.2436 352.751 69.9996C353.466 68.7555 353.824 67.4472 353.824 66.0744V61.4415C353.609 61.6989 353.137 61.9348 352.408 62.1493C351.693 62.3495 350.864 62.5282 349.92 62.6855C348.991 62.8285 348.083 62.9572 347.196 63.0716C346.324 63.1717 345.616 63.2575 345.073 63.329C343.757 63.5006 342.527 63.7794 341.383 64.1655C340.254 64.5373 339.339 65.1021 338.638 65.8599C337.952 66.6035 337.608 67.6187 337.608 68.9057C337.608 70.6645 338.259 71.9943 339.56 72.8952C340.876 73.7817 342.542 74.225 344.558 74.225ZM368.125 78V45.0545H373.015V50.0307H373.358C373.959 48.4006 375.046 47.0779 376.619 46.0626C378.191 45.0474 379.965 44.5398 381.938 44.5398C382.31 44.5398 382.774 44.5469 383.332 44.5612C383.89 44.5755 384.312 44.597 384.597 44.6256V49.7733C384.426 49.7304 384.033 49.666 383.418 49.5803C382.817 49.4802 382.181 49.4301 381.509 49.4301C379.907 49.4301 378.477 49.7661 377.219 50.4382C375.975 51.096 374.988 52.0111 374.259 53.1837C373.544 54.3419 373.187 55.6646 373.187 57.1517V78H368.125ZM406.99 45.0545V49.3443H389.917V45.0545H406.99ZM394.893 37.1614H399.955V68.5625C399.955 69.9924 400.162 71.0649 400.577 71.7798C401.006 72.4805 401.549 72.9524 402.207 73.1955C402.879 73.4242 403.587 73.5386 404.33 73.5386C404.888 73.5386 405.346 73.51 405.703 73.4528C406.061 73.3813 406.347 73.3241 406.561 73.2812L407.591 77.8284C407.247 77.9571 406.768 78.0858 406.154 78.2145C405.539 78.3575 404.759 78.429 403.816 78.429C402.386 78.429 400.984 78.1215 399.612 77.5067C398.253 76.8918 397.124 75.9552 396.223 74.6969C395.336 73.4385 394.893 71.8513 394.893 69.9352V37.1614ZM428.064 78.6864C424.889 78.6864 422.151 77.9857 419.849 76.5844C417.561 75.1687 415.795 73.1955 414.551 70.6645C413.321 68.1192 412.706 65.1593 412.706 61.7847C412.706 58.41 413.321 55.4358 414.551 52.8619C415.795 50.2738 417.525 48.2576 419.741 46.8134C421.972 45.3548 424.575 44.6256 427.549 44.6256C429.265 44.6256 430.959 44.9116 432.632 45.4835C434.305 46.0555 435.828 46.9849 437.201 48.2719C438.574 49.5445 439.667 51.2318 440.483 53.3338C441.298 55.4358 441.705 58.024 441.705 61.0983V63.2432H416.31V58.8676H436.557C436.557 57.0087 436.186 55.35 435.442 53.8915C434.713 52.433 433.669 51.2819 432.31 50.4382C430.966 49.5946 429.379 49.1727 427.549 49.1727C425.533 49.1727 423.788 49.6732 422.315 50.6741C420.857 51.6608 419.734 52.9477 418.948 54.5349C418.161 56.1222 417.768 57.8238 417.768 59.6398V62.5568C417.768 65.0449 418.197 67.154 419.055 68.8842C419.927 70.6001 421.136 71.9085 422.68 72.8094C424.224 73.6959 426.019 74.1392 428.064 74.1392C429.393 74.1392 430.595 73.9533 431.667 73.5815C432.754 73.1955 433.69 72.6235 434.477 71.8656C435.263 71.0935 435.871 70.1354 436.3 68.9915L441.19 70.3642C440.676 72.0229 439.81 73.4814 438.595 74.7398C437.38 75.9838 435.878 76.9562 434.091 77.6568C432.303 78.3432 430.294 78.6864 428.064 78.6864ZM461.846 78.6864C459.1 78.6864 456.676 77.9929 454.574 76.6058C452.472 75.2045 450.828 73.2312 449.641 70.6859C448.454 68.1264 447.861 65.1021 447.861 61.6131C447.861 58.1527 448.454 55.1498 449.641 52.6045C450.828 50.0593 452.48 48.0931 454.596 46.7061C456.712 45.3191 459.157 44.6256 461.931 44.6256C464.076 44.6256 465.771 44.983 467.015 45.698C468.273 46.3987 469.231 47.1994 469.889 48.1003C470.561 48.9868 471.083 49.7161 471.455 50.2881H471.884V34.0727H476.946V78H472.055V72.9381H471.455C471.083 73.5386 470.554 74.2965 469.867 75.2116C469.181 76.1125 468.202 76.9204 466.929 77.6354C465.656 78.336 463.962 78.6864 461.846 78.6864ZM462.532 74.1392C464.562 74.1392 466.278 73.6101 467.68 72.552C469.081 71.4795 470.146 69.9996 470.876 68.1121C471.605 66.2103 471.969 64.0153 471.969 61.5273C471.969 59.0678 471.612 56.9158 470.897 55.0712C470.182 53.2123 469.124 51.768 467.723 50.7385C466.321 49.6946 464.591 49.1727 462.532 49.1727C460.387 49.1727 458.6 49.7232 457.17 50.8243C455.754 51.911 454.689 53.391 453.974 55.2642C453.273 57.1231 452.923 59.2108 452.923 61.5273C452.923 63.8723 453.28 66.0029 453.995 67.919C454.725 69.8208 455.797 71.3366 457.213 72.4662C458.643 73.5815 460.416 74.1392 462.532 74.1392Z" fill="#191C1A"/>
</svg>
