<svg width="191" height="37" viewBox="0 0 191 37" fill="none" xmlns="http://www.w3.org/2000/svg">
<path d="M4.67831 1.31818V35.5H0.539107V1.31818H4.67831ZM16.3824 20.0781V35.5H12.4435V9.86364H16.2489V13.8693H16.5827C17.1835 12.5675 18.096 11.5215 19.3199 10.7315C20.5439 9.9304 22.1239 9.52983 24.06 9.52983C25.7958 9.52983 27.3146 9.88589 28.6164 10.598C29.9183 11.299 30.9308 12.3672 31.6541 13.8026C32.3773 15.2268 32.7389 17.0294 32.7389 19.2102V35.5H28.8V19.4773C28.8 17.4633 28.2771 15.8944 27.2311 14.7706C26.1852 13.6357 24.7498 13.0682 22.925 13.0682C21.6677 13.0682 20.5439 13.3408 19.5536 13.886C18.5744 14.4312 17.8011 15.2268 17.2336 16.2727C16.6661 17.3187 16.3824 18.5871 16.3824 20.0781ZM59.9818 9.86364L50.5016 35.5H46.496L37.0158 9.86364H41.2886L48.3653 30.2926H48.6323L55.709 9.86364H59.9818ZM75.0114 36.0341C72.5412 36.0341 70.4104 35.4889 68.619 34.3984C66.8387 33.2969 65.4645 31.7614 64.4965 29.7919C63.5396 27.8113 63.0611 25.508 63.0611 22.8821C63.0611 20.2562 63.5396 17.9418 64.4965 15.9389C65.4645 13.925 66.8109 12.3561 68.5356 11.2322C70.2714 10.0973 72.2964 9.52983 74.6108 9.52983C75.9461 9.52983 77.2646 9.75237 78.5665 10.1974C79.8683 10.6425 81.0533 11.3658 82.1215 12.3672C83.1897 13.3575 84.0409 14.6705 84.6751 16.3061C85.3093 17.9418 85.6265 19.9557 85.6265 22.348V24.017H65.8651V20.6122H81.6208C81.6208 19.1657 81.3315 17.875 80.7529 16.7401C80.1854 15.6051 79.3732 14.7094 78.3161 14.0529C77.2702 13.3964 76.0351 13.0682 74.6108 13.0682C73.0419 13.0682 71.6845 13.4576 70.5384 14.2365C69.4035 15.0043 68.53 16.0057 67.918 17.2408C67.306 18.4759 67 19.8 67 21.2131V23.483C67 25.419 67.3339 27.0603 68.0015 28.4066C68.6802 29.7418 69.6204 30.7599 70.8221 31.4609C72.0238 32.1508 73.4203 32.4957 75.0114 32.4957C76.0462 32.4957 76.9809 32.3511 77.8154 32.0618C78.661 31.7614 79.3898 31.3163 80.0018 30.7266C80.6138 30.1257 81.0867 29.3802 81.4205 28.4901L85.2259 29.5582C84.8253 30.849 84.1522 31.9839 83.2064 32.9631C82.2606 33.9311 81.0923 34.6877 79.7014 35.233C78.3105 35.767 76.7472 36.0341 75.0114 36.0341ZM95.5572 20.0781V35.5H91.6183V9.86364H95.4237V13.8693H95.7575C96.3584 12.5675 97.2708 11.5215 98.4947 10.7315C99.7187 9.9304 101.299 9.52983 103.235 9.52983C104.971 9.52983 106.489 9.88589 107.791 10.598C109.093 11.299 110.106 12.3672 110.829 13.8026C111.552 15.2268 111.914 17.0294 111.914 19.2102V35.5H107.975V19.4773C107.975 17.4633 107.452 15.8944 106.406 14.7706C105.36 13.6357 103.925 13.0682 102.1 13.0682C100.842 13.0682 99.7187 13.3408 98.7284 13.886C97.7492 14.4312 96.9759 15.2268 96.4084 16.2727C95.841 17.3187 95.5572 18.5871 95.5572 20.0781ZM119.111 35.5V9.86364H123.05V35.5H119.111ZM121.114 5.59091C120.347 5.59091 119.684 5.32943 119.128 4.80646C118.583 4.2835 118.31 3.65483 118.31 2.92045C118.31 2.18608 118.583 1.55741 119.128 1.03444C119.684 0.511482 120.347 0.25 121.114 0.25C121.882 0.25 122.539 0.511482 123.084 1.03444C123.64 1.55741 123.918 2.18608 123.918 2.92045C123.918 3.65483 123.64 4.2835 123.084 4.80646C122.539 5.32943 121.882 5.59091 121.114 5.59091ZM137.809 36.1009C136.184 36.1009 134.71 35.7949 133.386 35.1829C132.062 34.5598 131.01 33.6641 130.231 32.4957C129.453 31.3163 129.063 29.892 129.063 28.223C129.063 26.7543 129.352 25.5637 129.931 24.6513C130.51 23.7277 131.283 23.0045 132.251 22.4815C133.219 21.9586 134.287 21.5691 135.455 21.3132C136.635 21.0462 137.82 20.8348 139.011 20.679C140.568 20.4787 141.831 20.3285 142.799 20.2283C143.778 20.1171 144.491 19.9335 144.936 19.6776C145.392 19.4216 145.62 18.9766 145.62 18.3423V18.2088C145.62 16.562 145.169 15.2824 144.268 14.37C143.378 13.4576 142.026 13.0014 140.212 13.0014C138.332 13.0014 136.857 13.4131 135.789 14.2365C134.721 15.0599 133.97 15.9389 133.536 16.8736L129.797 15.5384C130.465 13.9806 131.355 12.7678 132.468 11.8999C133.592 11.0208 134.816 10.4089 136.14 10.0639C137.475 9.70786 138.788 9.52983 140.079 9.52983C140.902 9.52983 141.848 9.62997 142.916 9.83025C143.995 10.0194 145.036 10.4144 146.037 11.0153C147.05 11.6161 147.89 12.523 148.557 13.7358C149.225 14.9486 149.559 16.5732 149.559 18.6094V35.5H145.62V32.0284H145.42C145.153 32.5848 144.707 33.18 144.084 33.8143C143.461 34.4485 142.632 34.9882 141.598 35.4332C140.563 35.8783 139.3 36.1009 137.809 36.1009ZM138.41 32.5625C139.967 32.5625 141.28 32.2565 142.349 31.6445C143.428 31.0326 144.24 30.2425 144.785 29.2745C145.342 28.3065 145.62 27.2884 145.62 26.2202V22.6151C145.453 22.8153 145.086 22.9989 144.518 23.1658C143.962 23.3216 143.317 23.4607 142.582 23.5831C141.859 23.6944 141.152 23.7945 140.463 23.8835C139.784 23.9614 139.233 24.0282 138.81 24.0838C137.787 24.2173 136.83 24.4343 135.939 24.7347C135.06 25.024 134.348 25.4635 133.803 26.0533C133.269 26.6319 133.002 27.4219 133.002 28.4233C133.002 29.7919 133.508 30.8267 134.521 31.5277C135.544 32.2176 136.841 32.5625 138.41 32.5625ZM156.748 35.5V9.86364H160.554V13.8693H160.887C161.421 12.5007 162.284 11.4381 163.474 10.6815C164.665 9.91371 166.095 9.52983 167.764 9.52983C169.455 9.52983 170.863 9.91371 171.986 10.6815C173.121 11.4381 174.006 12.5007 174.64 13.8693H174.907C175.564 12.5452 176.548 11.4937 177.861 10.7148C179.174 9.92483 180.749 9.52983 182.585 9.52983C184.877 9.52983 186.752 10.2475 188.209 11.6829C189.667 13.1071 190.396 15.3269 190.396 18.3423V35.5H186.457V18.3423C186.457 16.4508 185.94 15.0988 184.905 14.2866C183.87 13.4743 182.652 13.0682 181.25 13.0682C179.447 13.0682 178.051 13.6134 177.06 14.7038C176.07 15.7831 175.575 17.1518 175.575 18.8097V35.5H171.569V17.9418C171.569 16.4841 171.096 15.3103 170.151 14.4201C169.205 13.5188 167.986 13.0682 166.495 13.0682C165.472 13.0682 164.515 13.3408 163.625 13.886C162.746 14.4312 162.033 15.1879 161.488 16.1559C160.954 17.1128 160.687 18.2199 160.687 19.4773V35.5H156.748Z" fill="#191C1A"/>
</svg>
