<svg width="109" height="14" viewBox="0 0 109 14" fill="none" xmlns="http://www.w3.org/2000/svg">
<path fill-rule="evenodd" clip-rule="evenodd" d="M3.75457 12.7292V1.51738H1.50574V12.7292H3.75457ZM107.827 12.7292V1.51738H105.333L102.273 6.4829L99.2029 1.51738H96.6998V12.7292H98.8998V4.97551L102.234 10.079L105.597 4.92625V12.7292H107.827ZM91.42 12.7292L86.6583 1.42871H84.517L79.7456 12.7194H82.014C83.1873 9.8031 84.3606 6.88684 85.5535 3.98044L89.0929 12.7194L91.42 12.7292ZM74.1822 12.7292V1.51738H71.9431V12.7292H74.1822ZM65.6366 12.7292V1.51738H63.4269V8.83758L57.8928 1.51738H55.7809V12.7292H57.9906V5.17255L63.7007 12.7292H65.6366ZM36.1867 1.51738H33.7716L30.7015 9.8425L27.6313 1.51738H25.1478L29.6455 12.808H31.6792L36.1867 1.51738ZM19.8875 12.7292V1.51738H17.6778V8.83758L12.1437 1.51738H10.0318V12.7292H12.2415V5.17255L17.9516 12.7292H19.8875Z" fill="black"/>
<path d="M49.7383 12.7294V10.7393H41.4078V12.7195L49.7383 12.7294ZM49.7383 8.0693V6.08901H41.4078V8.0693H49.7383ZM49.7383 3.49787V1.51758H41.4078V3.49787H49.7383Z" fill="black"/>
</svg>
