<svg width="1078" height="198" viewBox="0 0 1078 198" fill="none" xmlns="http://www.w3.org/2000/svg">
<path d="M110.667 12.4002V24.9335L124.4 25.7335C131.867 26.2668 143.067 27.8668 149.333 29.3335C172.533 34.9335 201.2 52.0002 220 71.4668L229.733 81.4668L224.533 86.9335C188.133 125.6 149.2 146.533 119.733 143.467L111.867 142.667L112.267 151.067L112.667 159.333L121.333 159.733C155.467 161.333 191.6 146.533 231.067 114.667L242.933 105.2L256.8 112.933C264.4 117.2 272 121.733 273.6 122.933L276.667 125.333L272 129.467C265.333 135.2 229.867 152.4 213.2 157.867C180.8 168.533 157.067 173.333 131.733 174.267L112 175.067V186.133V197.333H206H300V98.6668V0.000152469H205.333H110.667V12.4002Z" fill="black"/>
<path d="M90 29.8669C70.1333 35.0669 53.3333 42.8003 33.3333 55.6003C17.4667 65.8669 0 80.2669 0 82.9336C0 86.2669 11.2 107.067 18.4 117.334C26.5333 128.934 42.8 145.6 52.9333 152.8C67.3333 163.2 86.8 171.067 105.067 174L110.667 174.934V167.067V159.2L102.933 157.6C86.8 154.267 65.8667 141.334 54.4 127.467C43.7333 114.8 30.6667 91.6003 30.6667 85.4669C30.6667 82.5336 42.9333 69.8669 52.8 62.5336C66.8 52.2669 94.5333 41.3336 106.8 41.3336C110.4 41.3336 110.533 41.4669 110.933 49.6003L111.333 58.0003L121.867 58.2669C135.6 58.6669 146.667 62.4003 158.267 70.5336C168 77.4669 171.2 80.5336 170.4 82.5336C170.267 83.2003 164.667 88.2669 158 93.7336L146.133 103.867L139.333 93.6003C132 82.4003 124.667 76.4003 116.933 75.0669L112 74.2669V101.2C112 122.4 111.6 128 110.267 128C107.067 128 96.6667 120.534 90.8 113.867C85.3333 107.6 77.3333 93.8669 77.3333 90.5336C77.3333 86.2669 93.0667 76.4003 102.933 74.5336L110.667 72.9336V65.7336V58.5336L105.733 59.4669C96.8 60.9336 80.8 66.8003 74 70.9336C62.8 77.7336 53.3333 85.6003 53.3333 88.0003C53.3333 89.3336 55.8667 95.3336 58.8 101.467C66.5333 116.667 79.8667 130.134 93.4667 136.534C98.9333 139.067 104.933 141.467 107.067 141.867C110.667 142.667 110.667 142.667 110.667 136.134V129.467L121.733 130.267C131.2 130.934 134 130.534 142.267 127.734C147.467 125.867 156.133 121.467 161.6 117.867C171.2 111.467 190.933 92.9336 195.333 86.1336C197.6 82.6669 197.6 82.4003 193.733 77.6003C187.6 69.8669 169.333 55.8669 158.4 50.4003C146.4 44.5336 136.133 41.7336 121.733 40.5336L110.667 39.6003V33.2003C110.667 26.6669 110.667 26.6669 106.4 26.6669C104 26.8003 96.6667 28.2669 90 29.8669Z" fill="black"/>
<path d="M349.333 101.867V166.667H368H386.667V115.867V64.9337L406.4 65.867C430 67.067 434.934 69.067 440.267 79.6003C443.2 85.867 443.334 87.2003 443.734 126.267L444.134 166.667H462.134H480V125.334C480 81.6003 479.334 74.5337 473.734 63.3337C468.267 52.1337 460.667 45.6003 447.334 40.667C441.467 38.4003 435.467 38.1337 395.067 37.6003L349.333 37.2003V101.867Z" fill="black"/>
<path d="M486.667 38.0002C486.667 38.6668 497.333 71.4668 516.267 129.333L528.667 167.333H554.533C576.133 167.333 580.533 167.067 581.467 165.333C583.067 162.533 622.667 40.8002 622.667 38.9335C622.667 37.7335 617.333 37.3335 604.267 37.3335H586L573.467 79.6002C555.6 140 555.867 138.933 555.333 138.4C554.933 138 545.067 104.533 530.267 52.6668L526 38.0002L506.4 37.6002C495.467 37.4668 486.667 37.6002 486.667 38.0002Z" fill="black"/>
<path d="M639.334 69.6002C638.934 87.4668 638.667 116.667 638.934 134.667L639.334 167.333H657.334H675.334L675.734 102.267L676 37.3335H658.134H640.267L639.334 69.6002Z" fill="black"/>
<path d="M698.933 102.267L699.333 167.334L725.333 167.734C759.467 168.267 783.733 166.4 793.6 162.667C797.867 161.067 804.133 157.2 807.867 153.867C819.867 143.067 824.667 128.134 824.4 102C824.4 88.5336 823.867 84.4003 820.8 75.3336C814.8 57.2003 805.333 47.3336 787.867 41.2003C779.867 38.2669 776.8 38.1336 738.933 37.6003L698.667 37.0669L698.933 102.267ZM766.533 67.4669C781.6 71.8669 788.667 83.2003 788.667 102.8C788.667 112.8 788.133 115.067 784.667 122C778.667 133.734 772.4 137.2 753.733 139.067C745.733 139.867 738.133 140.134 736.933 139.6C734.933 138.8 734.667 135.334 734.667 102.934C734.667 83.2003 735.067 66.6669 735.6 66.2669C737.333 64.5336 759.6 65.3336 766.533 67.4669Z" fill="black"/>
<path d="M842.667 102V166.667H860.667H878.667V102V37.3337H860.667H842.667V102Z" fill="black"/>
<path d="M943.333 42.9337C942.133 46.1337 930.8 74.4003 918.4 106C905.867 137.467 895.467 164.134 895.067 165.067C894.533 166.4 898.267 166.667 912.667 166.4L930.933 166L934.933 154.934L938.933 144H969.333H999.867L1003.47 155.334L1007.2 166.667H1026.93H1046.53L1045.2 162.934C1044.4 160.934 1032.93 132 1019.6 98.667L995.333 38.0003L970.533 37.6003L945.6 37.3337L943.333 42.9337ZM980.933 91.6003L991.6 120.667L980.4 121.067C974.4 121.2 964.267 121.2 958.133 121.067L946.933 120.667L957.733 91.7337C963.733 75.7337 969.067 62.667 969.467 62.667C969.867 62.667 975.067 75.7337 980.933 91.6003Z" fill="black"/>
<path d="M1060.67 149.467C1053.87 153.334 1052.4 162.667 1057.73 167.734C1061.33 171.067 1069.87 171.734 1073.6 168.8C1078.93 164.8 1079.47 155.734 1074.67 151.334C1071.6 148.534 1064 147.6 1060.67 149.467ZM1070 152.267C1077.73 155.734 1075.07 167.067 1066.4 167.734C1062.67 168 1061.07 167.467 1059.47 165.067C1056.53 160.8 1056.8 157.734 1060.67 154C1064.27 150.267 1065.2 150 1070 152.267Z" fill="black"/>
<path d="M1061.33 159.333C1061.33 162.667 1062 165.333 1062.67 165.333C1063.47 165.333 1064 164.4 1064 163.333C1064 162.267 1064.53 161.333 1065.2 161.333C1065.87 161.333 1066.67 162.267 1067.2 163.333C1067.6 164.4 1068.53 165.333 1069.47 165.333C1070.27 165.333 1070.53 164.4 1070.13 163.2C1069.6 162 1070 160.133 1070.8 159.2C1073.07 156.533 1070 153.333 1065.2 153.333C1061.47 153.333 1061.33 153.6 1061.33 159.333ZM1068 157.333C1068 158 1067.07 158.667 1066 158.667C1064.93 158.667 1064 158 1064 157.333C1064 156.533 1064.93 156 1066 156C1067.07 156 1068 156.533 1068 157.333Z" fill="black"/>
</svg>
