<svg width="135" height="32" viewBox="0 0 135 32" fill="none" xmlns="http://www.w3.org/2000/svg">
<g clip-path="url(#clip0_1467_94638)">
<path d="M28.0725 18.4203C30.8276 18.4203 34.8137 17.8521 34.8137 14.5751C34.8219 14.3222 34.799 14.0692 34.7454 13.8219L33.1047 6.69535C32.7259 5.12732 32.3934 4.41599 29.6405 3.03956C27.5043 1.94723 22.8509 0.143555 21.4745 0.143555C20.1927 0.143555 19.8205 1.79527 18.2922 1.79527C16.821 1.79527 15.7287 0.561989 14.3523 0.561989C13.0309 0.561989 12.1698 1.46272 11.5047 3.31484C11.5047 3.31484 9.6526 8.53866 9.41476 9.29625C9.37695 9.43536 9.36061 9.57944 9.36631 9.72349C9.36631 11.754 17.3606 18.4115 28.0725 18.4115M35.2365 15.9053C35.6175 17.709 35.6175 17.8984 35.6175 18.1362C35.6175 21.2194 32.1511 22.9306 27.5946 22.9306C17.2967 22.9372 8.27618 16.9029 8.27618 12.9146C8.27558 12.3594 8.38876 11.81 8.60872 11.3003C4.90448 11.4853 0.110107 12.146 0.110107 16.3788C0.110107 23.3116 16.5369 31.8564 29.5436 31.8564C39.5156 31.8564 42.0306 27.3462 42.0306 23.7851C42.0306 20.9838 39.6081 17.8037 35.2409 15.9053" fill="black"/>
<path d="M35.2365 15.9054C35.6175 17.7091 35.6175 17.8985 35.6175 18.1363C35.6175 21.2195 32.1511 22.9307 27.5946 22.9307C17.2967 22.9373 8.27613 16.9031 8.27613 12.9147C8.27553 12.3596 8.38871 11.8102 8.60867 11.3004L9.41471 9.30518C9.37779 9.44146 9.36145 9.5825 9.36626 9.72361C9.36626 11.7541 17.3605 18.4116 28.0725 18.4116C30.8275 18.4116 34.8136 17.8434 34.8136 14.5664C34.8219 14.3135 34.799 14.0606 34.7454 13.8133L35.2365 15.9054Z" fill="white"/>
<path d="M127.675 20.4707C127.675 23.0892 129.25 24.3622 132.122 24.3622C133.006 24.3401 133.885 24.216 134.74 23.9922V20.9552C134.193 21.1285 133.623 21.2147 133.049 21.2107C131.866 21.2107 131.428 20.8407 131.428 19.7285V15.0751H134.855V11.9479H131.428V7.98377L127.684 8.79421V11.9479H125.198V15.0751H127.675V20.4707ZM116.003 20.5412C116.003 19.7308 116.816 19.3365 118.043 19.3365C118.792 19.3409 119.539 19.434 120.267 19.614V21.1887C119.55 21.5805 118.743 21.78 117.926 21.7679C116.723 21.7679 116.003 21.3054 116.003 20.5412ZM117.148 24.4084C118.47 24.4084 119.536 24.1309 120.531 23.4592V24.2014H124.235V16.348C124.235 13.3617 122.222 11.7232 118.864 11.7232C116.988 11.7232 115.133 12.1637 113.138 13.0666L114.481 15.8239C115.917 15.2205 117.124 14.8505 118.188 14.8505C119.729 14.8505 120.527 15.4517 120.527 16.6806V17.2818C119.619 17.0469 118.685 16.9299 117.747 16.9339C114.596 16.9339 112.698 18.2552 112.698 20.6183C112.698 22.7721 114.411 24.415 117.144 24.415M96.7861 24.208H100.77V17.8544H107.441V24.2014H111.436V7.98817H107.456V14.2184H100.785V7.98817H96.8015L96.7861 24.208ZM81.6212 18.0636C81.6212 16.3018 83.0108 14.9584 84.8409 14.9584C85.793 14.9391 86.7176 15.2787 87.4308 15.9098V20.1932C87.0852 20.5197 86.6785 20.7746 86.234 20.9432C85.7895 21.1117 85.316 21.1907 84.8409 21.1755C83.035 21.1755 81.6212 19.8321 81.6212 18.0724M87.4814 24.2102H91.1879V7.17773L87.444 7.98817V12.5976C86.4909 12.0572 85.4123 11.7777 84.3167 11.7871C80.7513 11.7871 77.9477 14.5422 77.9477 18.0636C77.9375 18.8899 78.092 19.7099 78.4021 20.4758C78.7122 21.2418 79.1718 21.9382 79.7541 22.5246C80.3363 23.1109 81.0295 23.5754 81.7933 23.8909C82.557 24.2064 83.3759 24.3666 84.2022 24.3622C85.3837 24.3678 86.5359 23.995 87.4902 23.2985L87.4814 24.2102ZM70.4732 14.7888C71.6536 14.7888 72.6491 15.553 73.0433 16.7334H67.934C68.3039 15.5156 69.2311 14.7888 70.4732 14.7888ZM64.1592 18.0923C64.1592 21.66 67.0773 24.4392 70.8278 24.4392C72.8891 24.4392 74.3955 23.8821 75.9481 22.5849L73.4683 20.3826C72.8891 20.9861 72.0324 21.3098 71.015 21.3098C70.3751 21.3278 69.7449 21.1517 69.2071 20.8046C68.6693 20.4574 68.2493 19.9556 68.0022 19.3652H76.7343V18.4336C76.7343 14.5422 74.118 11.7409 70.5503 11.7409C69.7116 11.7282 68.8789 11.8834 68.101 12.1972C67.3232 12.5111 66.616 12.9773 66.0209 13.5684C65.4259 14.1596 64.955 14.8637 64.6361 15.6395C64.3171 16.4152 64.1565 17.2469 64.1637 18.0856M57.6999 11.3929C59.0213 11.3929 59.7613 12.2254 59.7613 13.223C59.7613 14.2206 59.0213 15.0531 57.6999 15.0531H53.7601V11.3929H57.6999ZM49.7717 24.2014H53.7557V18.2949H56.7882L59.8472 24.2014H64.3068L60.7391 17.7157C61.6458 17.3469 62.4214 16.7153 62.9661 15.9021C63.5109 15.0889 63.7999 14.1313 63.7959 13.1525C63.7959 10.2345 61.5033 7.98817 58.0699 7.98817H49.7717V24.2014Z" fill="#151515"/>
</g>
<defs>
<clipPath id="clip0_1467_94638">
<rect width="135" height="32" fill="white"/>
</clipPath>
</defs>
</svg>
