<svg width="247" height="49" viewBox="0 0 247 49" fill="none" xmlns="http://www.w3.org/2000/svg">
<path d="M113.3 49C165.4 34.5 202.2 29.8999 246.9 25.8999C236 16.0999 224.9 8.0999 212.7 0.899902C182.3 12.2999 145.6 31.2 113.3 49Z" fill="#E80029"/>
<path d="M191.8 18.2002C191.8 16.4002 190.9 15.4 190.4 15C189.1 13.9 187.7 13.7998 186.4 13.7998H182.2C181 14.2998 179.8 14.9 178.6 15.5V28.6001H181.9V22.3999H185.1C185.4 22.7999 187.7 27.3001 188.4 28.6001H192.4C191.8 27.5001 189.7 23.9002 188.6 22.2002C190.6 21.7002 191.7 20.2998 191.7 18.2998M188.1 19.2002C187.5 20.0002 186.4 20 185.5 20H181.9V16.2002H186.1C187.1 16.2002 187.7 16.1999 188.1 16.8999C188.3 17.1999 188.4 17.6 188.4 18C188.4 18.4 188.3 18.8001 188 19.1001L188.1 19.2002ZM208.5 13.7998H193.6V16.2998H199.3V28.5H202.7V16.2998H208.4V13.7998H208.5ZM217.5 13.7998H213.4L206 28.5H209.6L211.3 24.8999H219.2L220.8 28.3999C222 28.2999 223.2 28.1 224.4 28L217.4 13.7002L217.5 13.7998ZM212.5 22.3999L215.4 16.5L218 22.3999H212.5Z" fill="white"/>
<path d="M106.2 13.2998H105.3V14.2002H106.2V13.2998ZM108 13.2998H107.1V14.2002H108V13.2998ZM75.2 13.2998H74.3V14.2002H75.2V13.2998ZM73.5 13.2998H72.6001V14.2002H73.5V13.2998ZM5.30005 14.8999H4.3999V15.7998H5.30005V14.8999ZM7.1001 14.8999H6.19995V15.7998H7.1001V14.8999ZM121.6 19.2002H120.7V20.1001H121.6V19.2002ZM123.3 19.2002H122.4V20.1001H123.3V19.2002ZM90.8 23.7998L88.3999 28.5H89.3L89.8 27.3999H92.3L92.8 28.5H93.8L91.5 23.7998H90.7H90.8ZM90.3 26.6001C90.4 26.3001 91.1001 24.8999 91.1001 24.8999V24.7998C91.1001 24.8998 91.7999 26.3001 91.8999 26.6001H90.1001H90.3ZM113.9 14.8999H112.6C112.6 14.7999 112.6 14.6001 112.6 14.6001C112.6 14.3001 112.9 14.2002 113.1 14.2002C113.5 14.2002 113.6 14.4 113.7 14.5L114 14.2998C114 14.1998 113.8 13.9999 113.6 13.8999C113.4 13.8999 113.1 13.8999 113.1 13.8999C112.5 13.8999 112.2 14.2002 112.2 14.7002V15.1001H111.9V15.5H114V15.1001L113.9 14.8999ZM8.80005 23.7002C7.40005 23.7002 6.1001 24.5002 6.1001 26.2002C6.1001 27.9002 6.6 27.8001 7 28.1001C7.5 28.4001 8.10005 28.6001 8.80005 28.6001C10.2 28.6001 11.5 27.9002 11.5 26.2002C11.5 24.5002 10.4 23.7002 8.69995 23.7002H8.80005ZM8.8999 27.7998C8.1999 27.7998 7.70005 27.6002 7.30005 27.2002C7.00005 26.9002 6.8999 26.4002 6.8999 26.2002C6.8999 25.0002 7.79995 24.6 8.69995 24.5C9.29995 24.5 9.89995 24.7 10.2 25C10.5 25.3 10.6001 25.7001 10.6001 26.1001C10.6001 26.5001 10.4 27.7998 8.69995 27.7998H8.8999ZM5.6001 25.2002C5.6001 24.6002 5.29995 24.3002 5.19995 24.2002C4.79995 23.8002 4.2999 23.7998 3.8999 23.7998H0.800049V28.3999H1.6001V26.6001H3.5L5 28.3999H6.1001C6.1001 28.3999 4.6999 26.7 4.3999 26.5C5.0999 26.3 5.5 25.9002 5.5 25.2002H5.6001ZM1.69995 25.8999V24.5H4C4.3 24.5 4.49995 24.4998 4.69995 24.7998V25.2002C4.79995 25.2002 4.69995 25.6001 4.69995 25.6001C4.49995 25.9001 4.10005 25.8999 3.80005 25.8999H1.80005H1.69995ZM3.69995 18.3999H10.3V14.8999H9.3999V17.6001H3.5C2.9 17.6001 2.2999 17.6 1.8999 17C1.5999 16.7 1.6001 16.2 1.6001 16C1.6001 15.8 1.6001 15.4999 1.6001 15.3999H0.699951C0.699951 15.5999 0.699951 15.8 0.699951 16C0.699951 16.9 1.10005 17.4002 1.30005 17.7002C2.00005 18.4002 2.9001 18.3999 3.6001 18.3999H3.69995ZM57.1001 13.7002H56.2V18.3999H57.1001V13.7002ZM133.7 15.3999C133.1 14.8999 132.4 14.8999 131.9 14.8999H131.5V14.1001H130.6V14.8999H130.2C129.7 14.8999 129.1 14.8999 128.4 15.3999C128.1 15.5999 127.6 16.2002 127.6 17.2002V17.6001H123.3V14.8999H122.4V17.6001H117.1V14.8999H116.2V17.6001H108.8V14.8999H106.1C106.1 14.8999 105.7 14.9 105.3 15C104.6 15.2 104.3 15.9001 104.3 16.6001C104.3 17.3001 104.3 18.3999 106.2 18.3999C108.1 18.3999 107 18.4001 107.4 18.1001C107.8 17.9001 107.9 17.5 107.9 17.5V18.3999H134.3V17.2002C134.3 16.2002 133.8 15.6999 133.5 15.3999H133.7ZM108.1 15.7998C108.1 16.3998 107.9 17.0002 107.6 17.2002C107.2 17.5002 106.9 17.5 106.4 17.5C105.5 17.5 105.4 16.8 105.4 16.5C105.4 16.1 105.5 15.8002 105.8 15.7002C106.1 15.6002 106.3 15.6001 106.7 15.6001H108.1V15.7998ZM130.6 17.6001H128.6V17.2002C128.6 16.6002 128.8 16.2001 129 16.1001C129.4 15.7001 129.8 15.7002 130.2 15.7002H130.6V17.6001ZM133.6 17.6001H131.5V15.7002H131.9C132.3 15.7002 132.8 15.7001 133.1 16.1001C133.2 16.3001 133.5 16.6002 133.5 17.2002V17.6001H133.6ZM13.8999 23.7998L11.5 28.5H12.5L13 27.3999H15.5L16 28.5H17L14.7 23.7998H13.8999ZM13.3999 26.6001C13.4999 26.3001 14.2 24.8999 14.2 24.8999V24.7998C14.2 24.8998 14.9 26.3001 15 26.6001H13.2H13.3999ZM80.1001 19.1001C80.3001 18.8001 80.3 18.5999 80.3 18.3999H97.1001V13.7002H96.2V17.6001H93V17.2002C93 16.2002 92.5 15.6999 92.3 15.3999C91.7001 14.8999 91 14.8999 90.5 14.8999H86.5V13.7002H85.6001V17.6001H80.2V14.8999H79.3V18.2002C79.3 18.5002 79.2999 18.9 78.8999 19C78.5999 19.1 78.2999 19.1001 78.2 19.1001C77.8999 19.1001 77.7001 19.1 77.6001 19V19.7998C77.9001 19.7998 78.2001 19.7998 78.3 19.7998C78.9 19.7998 79.7 19.6 80 19L80.1001 19.1001ZM86.5 15.7002H90.5C90.9 15.7002 91.3999 15.7001 91.7 16.1001C91.8999 16.3001 92.1001 16.6002 92.1001 17.2002V17.6001H86.3999V15.7002H86.5ZM13.2 19.7998C13.5 19.7998 13.9 19.8999 14.3 19.8999C15.3 19.8999 15.9999 19.6002 16.3999 19.2002C16.5999 19.0002 16.6001 18.6999 16.6001 18.3999H30.8999C31.0999 17.6999 31.1001 17.2002 31.1001 17.2002C31.1001 16.2002 30.6 15.6999 30.3 15.3999C29.7 14.8999 29 14.8999 28.5 14.8999H23.8V17.6001H22V15.6001H21.1001V17.6001H16.6001V13.7002H15.7V18.3999C15.7 18.8999 15.1 19.2002 14.2 19.2002C13.3 19.2002 13.1 19.0998 12.7 18.7998L12.5 18.5L11.7 18.7998C11.8 19.0998 12.1001 19.5998 13.1001 19.7998H13.2ZM24.7 15.7002H28.6001C29.0001 15.7002 29.5 15.7001 29.8 16.1001C30 16.3001 30.2 16.6002 30.2 17.2002V17.6001H24.7V15.7002ZM14.3999 18.2002L13.3999 13.7002H12.5L13.5 18.3999L14.3999 18.2002ZM34.1001 13.7002H33.2V18.3999H34.1001V13.7002ZM131.8 25.7998L130.3 23.7998H129.2L131.5 26.7002V28.5H132.3V26.7002L134.6 23.7998H133.5L131.9 25.7998H131.8ZM99.7 24.6001H101.5V28.5H102.3V24.6001H104.1V23.7998H99.7V24.6001ZM108.7 25.6001H105.6V23.7998H104.7V28.5H105.6V26.3999H108.7V28.5H109.6V23.7998H108.7V25.6001ZM58 27V27.2998L57.8 27L54.8 23.7998H54V28.3999H54.8V25.2998C54.8 25.2998 54.8 25.0999 54.8 24.8999V25.1001C54.9 25.1001 58 28.3999 58 28.3999H58.8V23.7998H58V27ZM67.8999 23.7998H65.1001V28.3999H66V26.6001H68C68.4 26.6001 69.1001 26.6 69.6001 26C69.8001 25.8 69.8 25.5002 69.8 25.2002C69.8 24.9002 69.6001 24.4001 69.3 24.1001C69 23.8001 68.5999 23.7002 67.8999 23.7002V23.7998ZM68.6001 25.7998C68.4001 25.8998 68.0999 25.8999 67.8999 25.8999H66V24.5H67.8C68.2001 24.5 68.5 24.5002 68.7 24.7002C68.7999 24.8002 68.8999 25.0002 68.8999 25.2002C68.8999 25.4002 68.8001 25.6002 68.6001 25.7002V25.7998ZM61.1001 24.6001C61.3001 24.5001 61.8001 24.3999 62.1001 24.3999C62.6001 24.3999 63.0999 24.5002 63.3999 24.7002L63.6001 24.8999L64.3999 24.7002C64.2999 24.4002 64.1999 24.3001 63.8999 24.1001C63.3999 23.8001 62.9001 23.6001 62.1001 23.6001C60.7001 23.6001 59.8999 24.1 59.8999 25C59.8999 25.9 60 25.5998 60.2 25.7998C60.6 26.0998 61.0001 26.1998 62.1001 26.2998C63.0001 26.2998 63.5 26.3999 63.5 26.8999C63.5 27.3999 63.0001 27.7002 62.1001 27.7002C61.2001 27.7002 60.9 27.5998 60.5 27.2998L60.2 27.1001L59.3999 27.3999C59.4999 27.6999 59.9 28.1999 60.8 28.3999C61.1 28.3999 61.5999 28.5 61.8999 28.5C62.8999 28.5 63.5999 28.2998 63.8999 27.7998C64.0999 27.5998 64.1001 27.3 64.1001 27C64.1001 26.1 63.4 25.8002 63 25.7002H62.3999L61.2 25.5C60.7999 25.5 60.6 25.4998 60.5 25.2998V25C60.4 24.9 60.5 24.7001 60.7 24.6001H61.1001ZM73 23.7002C71.6 23.7002 70.3 24.5002 70.3 26.2002C70.3 27.9002 70.7999 27.8001 71.2 28.1001C71.7 28.4001 72.3001 28.6001 73.1001 28.6001C74.5001 28.6001 75.8 27.9002 75.8 26.2002C75.8 24.5002 74.7 23.7002 73 23.7002ZM73.1001 27.7998C72.4001 27.7998 71.9 27.6002 71.5 27.2002C71.2 26.9002 71.1001 26.4002 71.1001 26.2002C71.1001 25.0002 71.9999 24.6 72.8999 24.5C73.4999 24.5 74.0999 24.7 74.3999 25C74.6999 25.3 74.8 25.7001 74.8 26.1001C74.8 26.5001 74.5999 27.7998 72.8999 27.7998H73.1001ZM81.8999 24.6001H83.7V28.5H84.5V24.6001H86.3V23.7998H81.8999V24.6001ZM98.1001 26.6001C98.1001 27.0001 98.1001 27.3001 97.6001 27.6001C97.4001 27.7001 97.0001 27.7998 96.6001 27.7998C95.9001 27.7998 95.6 27.6 95.5 27.5C95.2 27.3 95.1001 27.1 95.1001 26.5V23.7998H94.2V26.5C94.2 27 94.1999 27.6001 94.8999 28.1001C95.2999 28.4001 95.9001 28.5 96.6001 28.5C97.3001 28.5 97.7999 28.4001 98.2 28.1001C98.8999 27.6001 98.8999 27 98.8999 26.5V23.7002H98V26.5L98.1001 26.6001ZM71.8999 16.6001C71.8999 17.7001 72.7001 18.2998 73.8 18.2998C74.9 18.2998 74.8001 18.0999 75.1001 17.8999V18.1001C75.1001 18.4001 75.1 18.5998 74.7 18.7998C74.5 18.7998 74.3 18.8999 74 18.8999H70C69.7 18.8999 69.5 18.8998 69.3 18.7998C68.9 18.5998 68.8999 18.4001 68.8999 18.1001V15.7002H68V18.1001C68 18.4001 68 18.8001 68.3 19.1001C68.7001 19.5001 69.5001 19.7002 70.1001 19.7002H74.2C74.7999 19.7002 75.4999 19.6001 75.8999 19.1001C76.1999 18.8001 76.2 18.4001 76.2 18.1001V14.8999H74.1001C72.7001 14.8999 72.1001 15.6001 72.1001 16.6001H71.8999ZM75.1001 15.6001V16.6001C75.1001 17.1001 74.6999 17.6001 73.8999 17.6001C73.0999 17.6001 72.7 17.2002 72.7 16.7002C72.7 16.2002 73.2999 15.7002 73.8999 15.7002H75.1001V15.6001ZM81.3 25.2002C81.3 24.6002 80.9999 24.3002 80.8999 24.2002C80.4999 23.8002 80.0001 23.7998 79.6001 23.7998H76.5V28.3999H77.3V26.6001H79.2L80.7 28.3999H81.8C81.8 28.3999 80.3999 26.7 80.2 26.5C80.8999 26.3 81.3 25.9002 81.3 25.2002ZM77.3 25.8999V24.5H79.6001C79.9001 24.5 80.1001 24.4998 80.3 24.7998V25.2002C80.4 25.2002 80.3 25.6001 80.3 25.6001C80.1001 25.9001 79.6999 25.8999 79.3999 25.8999H77.3999H77.3ZM47 25.2002C47 24.6002 46.7001 24.3002 46.6001 24.2002C46.2001 23.8002 45.7001 23.7998 45.3 23.7998H42.2V28.3999H43V26.6001H44.8999L46.3999 28.3999H47.5C47.5 28.3999 46.1 26.7 45.8 26.5C46.5 26.3 46.8999 25.9002 46.8999 25.2002H47ZM43.1001 25.8999V24.5H45.3999C45.6999 24.5 45.9001 24.4998 46.1001 24.7998V25.2002C46.2001 25.2002 46.1001 25.6001 46.1001 25.6001C45.9001 25.9001 45.5 25.8999 45.2 25.8999H43.2H43.1001ZM37.3 24.6001H39.1001V28.5H39.8999V24.6001H41.7V23.7998H37.3V24.6001ZM35.1001 27.7002H34.8L34.3999 27.5C34.6999 27.1 34.8 26.8002 34.8 26.2002C34.8 26.1002 34 26.1001 34 26.1001C34 26.2001 34 26.6001 34 26.6001L33.8 27L33.6001 26.7998L33 26.2002C33.2 26.2002 33.4001 26.0002 33.6001 25.7002C33.7001 25.5002 33.8 25.3001 33.8 25.1001C33.8 24.6001 33.4001 24 32.6001 24C31.8001 24 31.3 24.4001 31.3 25.1001C31.3 25.8001 31.5001 25.6999 31.6001 25.8999C31.1001 26.0999 30.5 26.4002 30.5 27.2002C30.5 28.0002 30.6999 27.9002 30.8999 28.2002C31.1999 28.5002 31.6 28.6001 32.2 28.6001C33 28.6001 33.5 28.3001 33.8 28.1001C34.2001 28.4001 34.3001 28.5 34.6001 28.5H35V28.2998V27.7002H35.1001ZM32.6001 24.7002C32.8001 24.7002 33 24.8001 33 25.1001C33 25.4001 32.7 25.6002 32.5 25.7002C32.4 25.6002 32.2 25.4001 32.2 25.1001C32.2 24.8001 32.4001 24.7002 32.6001 24.7002ZM32.3999 27.7998C31.7999 27.7998 31.3999 27.5001 31.3999 27.1001C31.3999 26.7001 31.8001 26.6 32.1001 26.5L32.6001 27C32.6001 27 33 27.4001 33.3 27.6001C33 27.7001 32.6999 27.7998 32.3999 27.7998ZM122.7 28.3999H123.6V23.7998H122.7V28.3999ZM21.6001 24.2998C21.0001 23.7998 20.3999 23.7998 19.8999 23.7998H17.6001V28.3999H19.5C20.2 28.3999 21.1 28.4002 21.8 27.7002C22 27.5002 22.3999 26.9 22.3999 26C22.3999 25.1 21.9001 24.5002 21.6001 24.2002V24.2998ZM21.2 27.1001C20.8 27.6001 20.2001 27.7002 19.6001 27.7002H18.5V24.6001H19.8999C20.2999 24.6001 20.7001 24.6 21.1001 25C21.3001 25.2 21.5 25.5001 21.5 26.1001C21.5 26.7001 21.5 26.8001 21.2 27.1001ZM24.3999 24.6001C24.5999 24.5001 25.0999 24.3999 25.3999 24.3999C25.8999 24.3999 26.4 24.5002 26.7 24.7002L26.8999 24.8999L27.7 24.7002C27.6 24.4002 27.5 24.3001 27.2 24.1001C26.7 23.8001 26.1999 23.6001 25.3999 23.6001C23.9999 23.6001 23.2 24.1 23.2 25C23.2 25.9 23.3 25.5998 23.5 25.7998C23.9 26.0998 24.2999 26.1998 25.3999 26.2998C26.2999 26.2998 26.8999 26.3999 26.8999 26.8999C26.8999 27.3999 26.4 27.7002 25.5 27.7002C24.6 27.7002 24.2999 27.5998 23.8999 27.2998L23.6001 27.1001L22.8 27.3999C22.9 27.6999 23.3 28.1999 24.2 28.3999C24.5 28.3999 24.9999 28.5 25.3999 28.5C26.3999 28.5 27.0999 28.2998 27.3999 27.7998C27.5999 27.5998 27.6001 27.3 27.6001 27C27.6001 26.1 26.9 25.8002 26.5 25.7002H25.8999L24.7 25.5C24.3 25.5 24.1 25.4998 24 25.2998V25C23.9 24.9 24 24.7001 24.2 24.6001H24.3999ZM124.2 24.6001H126V28.5H126.8V24.6001H128.6V23.7998H124.2V24.6001ZM50.3999 23.7998L48 28.5H49L49.5 27.3999H52L52.5 28.5H53.5L51.2 23.7998H50.3999ZM49.8999 26.6001C49.9999 26.3001 50.7 24.8999 50.7 24.8999V24.7998C50.7 24.8998 51.4 26.3001 51.5 26.6001H49.7H49.8999ZM113.1 23.7002C111.7 23.7002 110.4 24.5002 110.4 26.2002C110.4 27.9002 110.9 27.8001 111.3 28.1001C111.8 28.4001 112.4 28.6001 113.2 28.6001C114.6 28.6001 115.9 27.9002 115.9 26.2002C115.9 24.5002 114.8 23.7002 113.1 23.7002ZM113.2 27.7998C112.5 27.7998 112 27.6002 111.6 27.2002C111.3 26.9002 111.2 26.4002 111.2 26.2002C111.2 25.0002 112.1 24.6 113 24.5C113.6 24.5 114.2 24.7 114.5 25C114.8 25.3 114.9 25.7001 114.9 26.1001C114.9 26.5001 114.7 27.7998 113 27.7998H113.2ZM52.8999 17.6001H49.1001C49.3001 17.3001 49.3999 17.0001 49.3999 16.6001C49.3999 15.6001 48.5999 14.8999 47.3999 14.8999H45.3V17.6001H40.1001V14.8999H38C36.8 14.8999 36.1001 15.6001 36.1001 16.6001C36.1001 17.6001 37.1 18.3999 38 18.3999H39.3C39.3 18.6999 39.2999 18.9001 38.8999 19.1001C38.6999 19.1001 38.5 19.2002 38.2 19.2002H36.7V19.8999H38.2C38.7999 19.8999 39.4999 19.7998 39.8999 19.2998C40.1999 18.9998 40.2 18.5998 40.2 18.2998H53.8V13.6001H52.8999V17.5V17.6001ZM39.3 17.6001H38.1001C37.4001 17.6001 37 17.2001 37 16.6001C37 16.0001 37.6001 15.6001 38.1001 15.6001H39.3V17.6001ZM47.3999 17.6001H46.2V15.6001H47.3999C47.9999 15.6001 48.6001 15.9001 48.6001 16.6001C48.6001 17.3001 48.0999 17.6001 47.3999 17.6001ZM121.5 25.2002C121.5 24.6002 121.2 24.3002 121.1 24.2002C120.7 23.8002 120.2 23.7998 119.8 23.7998H116.7V28.3999H117.5V26.6001H119.4L120.9 28.3999H122C122 28.3999 120.6 26.7 120.4 26.5C121.1 26.3 121.5 25.9002 121.5 25.2002ZM117.4 25.8999V24.5H119.7C120 24.5 120.2 24.4998 120.4 24.7998V25.2002C120.5 25.2002 120.4 25.6001 120.4 25.6001C120.2 25.9001 119.8 25.8999 119.5 25.8999H117.5H117.4ZM100.4 13.7002H99.5V18.3999H100.4V13.7002ZM61.6001 18.2998C62.3001 18.2998 62.5999 18.0999 62.8999 17.8999V18.3999C62.8999 18.6999 62.9 18.9001 62.5 19.1001C62.3 19.1001 62.1 19.2002 61.8 19.2002H60.3999V19.8999H61.8999C62.4999 19.8999 63.2001 19.7998 63.6001 19.2998C63.9001 18.9998 63.8999 18.5998 63.8999 18.2998V14.8999H61.8C60.4 14.8999 59.8 15.6001 59.8 16.6001C59.8 17.6001 60.6 18.2998 61.7 18.2998H61.6001ZM61.7 15.6001H62.8999V16.6001C62.8999 17.1001 62.5 17.6001 61.7 17.6001C60.9 17.6001 60.5 17.2002 60.5 16.7002C60.5 16.2002 61.1 15.7002 61.7 15.7002V15.6001Z" fill="#231F20"/>
</svg>
