<svg width="109" height="19" viewBox="0 0 109 19" fill="none" xmlns="http://www.w3.org/2000/svg">
<g clip-path="url(#clip0_1467_94635)">
<path fill-rule="evenodd" clip-rule="evenodd" d="M5.32578 11.267C3.7943 10.6652 2.47168 10.1454 2.47168 8.94598C2.47168 7.56081 3.72488 7.0662 4.8983 7.0662C6.92729 7.0662 8.00511 8.19517 8.01607 8.2062L8.11959 8.31775L9.02751 6.78365L8.9721 6.72052C8.91973 6.66169 7.66167 5.2753 4.94945 5.2753C2.78955 5.2753 0.465229 6.42388 0.465229 8.94659C0.465229 11.3314 2.60504 12.1846 4.49153 12.9372C6.02545 13.5489 7.34928 14.0772 7.34928 15.2656C7.34928 16.5999 6.11861 17.1969 4.8983 17.1969C2.59164 17.1969 1.1856 15.6891 1.1716 15.6738L1.07843 15.5727L0 17.0112L0.0608939 17.0817C0.079162 17.1007 0.488978 17.5677 1.29095 18.0384C2.02655 18.4717 3.24564 18.9884 4.87273 18.9884C7.47107 18.9884 9.35695 17.4224 9.35695 15.2656C9.35695 12.8508 7.2147 12.0087 5.32578 11.267ZM23.164 12.0681C23.164 14.9445 21.0266 17.1969 18.2986 17.1969C15.5718 17.1969 13.4344 14.9445 13.4344 12.0687C13.4344 9.27694 15.5718 7.09194 18.2992 7.09194C21.0273 7.09194 23.1646 9.27694 23.1646 12.0687L23.164 12.0681ZM18.2986 5.27591C14.4465 5.27591 11.428 8.25952 11.428 12.0693C11.428 15.949 14.4465 18.989 18.2992 18.989C22.1526 18.989 25.1711 15.949 25.1711 12.0693C25.1711 8.25952 22.1526 5.27591 18.2992 5.27591H18.2986ZM33.6706 0.423556C33.4038 0.385708 33.1345 0.368292 32.865 0.371459C31.5034 0.371459 28.3363 0.847685 28.3363 5.26365V5.76194H26.5966V7.44865H28.3363V18.6911H30.2898V7.44865H33.5629V5.76133H30.2898V5.26304C30.2898 4.10404 30.6485 2.15869 33.0422 2.15869C33.3808 2.15869 33.6274 2.20772 33.6299 2.20772L33.7656 2.2353V0.440105L33.6706 0.423556ZM42.8936 17.0951L42.7524 17.1258C42.5645 17.1613 42.3735 17.178 42.1824 17.1754C41.1338 17.1754 39.3746 16.7403 39.3746 13.8271V7.48481H42.6354V5.76562H39.374V1.98585H37.4071V5.76501H35.6734V7.4842H37.3809V14.0086C37.3809 18.351 40.2916 18.9994 42.0271 18.9994C42.4978 18.9994 42.7858 18.9479 42.7974 18.9455L42.8936 18.9283V17.0951ZM46.8682 14.7876C46.8682 14.7876 48.2961 16.226 50.4122 16.226C51.3311 16.226 52.1203 15.8154 52.1203 15.045C52.1203 13.0929 45.7971 13.3497 45.7971 9.13843C45.7971 6.69907 47.9649 5.28572 50.769 5.28572C53.7017 5.28572 55.129 6.77507 55.129 6.77507L53.9313 9.18991C53.9313 9.18991 52.7329 8.05972 50.7441 8.05972C49.9025 8.05972 49.0865 8.41888 49.0865 9.24078C49.0865 11.0899 55.4104 10.8588 55.4104 15.0695C55.4104 17.2527 53.5233 18.9982 50.4384 18.9982C47.1994 18.9982 45.3885 17.0725 45.3885 17.0725L46.8682 14.7876ZM66.6361 10.5254C66.585 8.75291 65.4883 7.8023 64.0603 7.8023C62.404 7.8023 61.2556 8.83014 60.9493 10.5254H66.6361ZM64.1371 5.28572C67.8857 5.28572 69.9001 8.03336 69.9001 11.5006C69.9001 11.8855 69.8239 12.7595 69.8239 12.7595H60.8482C61.0516 15.0456 62.812 16.226 64.749 16.226C66.8401 16.226 68.4971 14.7876 68.4971 14.7876L69.7472 17.1252C69.7472 17.1252 67.7578 18.9988 64.5195 18.9988C60.21 18.9988 57.5325 15.8669 57.5325 12.1429C57.5325 8.1112 60.2618 5.28572 64.1371 5.28572ZM73.1591 5.59462H76.2708V7.85439C76.2708 8.34165 76.2196 8.77865 76.2196 8.77865H76.2702C76.8572 6.90439 78.4124 5.41443 80.4012 5.41443C80.7075 5.41443 80.9876 5.46591 80.9876 5.46591V8.6763C80.9876 8.6763 80.6564 8.62481 80.2228 8.62481C78.8454 8.62481 77.2901 9.42036 76.6788 11.3725C76.4748 12.0142 76.3987 12.7331 76.3987 13.5035V18.6911H73.1591V5.59462ZM82.3979 5.59462H85.8147L88.5177 13.7088C88.7735 14.4799 88.9519 15.3502 88.9757 15.3502H89.028C89.053 15.3502 89.2314 14.4799 89.4866 13.7088L92.1903 5.59401H95.6064L90.9401 18.6911H87.1154L82.3979 5.59462ZM105.508 10.5254C105.457 8.75291 104.36 7.8023 102.933 7.8023C101.275 7.8023 100.127 8.83014 99.8215 10.5254H105.508ZM103.009 5.28572C106.758 5.28572 108.772 8.03336 108.772 11.5006C108.772 11.8855 108.696 12.7595 108.696 12.7595H99.7198C99.9238 15.0456 101.683 16.226 103.621 16.226C105.712 16.226 107.369 14.7876 107.369 14.7876L108.619 17.1252C108.619 17.1252 106.63 18.9988 103.392 18.9988C99.0828 18.9988 96.4047 15.8669 96.4047 12.1429C96.4047 8.1112 99.1334 5.28572 103.009 5.28572Z" fill="black"/>
</g>
<defs>
<clipPath id="clip0_1467_94635">
<rect width="109" height="19" fill="white"/>
</clipPath>
</defs>
</svg>
