<svg width="240" height="50" viewBox="0 0 240 50" fill="none" xmlns="http://www.w3.org/2000/svg">
<g clip-path="url(#clip0_1318_21212)">
<path d="M100.864 28.1586H95.1887V24.627H110.651V28.1586H104.976V44.4159H100.864V28.1586ZM112.546 35.9582H118.659C118.549 34.4264 117.48 33.1933 115.643 33.1933C113.915 33.1933 112.875 34.0431 112.546 35.9582ZM122.498 39.7358C121.949 42.7195 119.317 44.6347 115.917 44.6347C111.23 44.6347 108.816 40.9609 108.816 37.4916C108.816 33.9888 110.955 30.4028 115.643 30.4028C120.523 30.4028 122.469 33.9888 122.469 37.1354C122.469 37.6561 122.443 38.065 122.414 38.3669H112.494C112.768 40.3108 114.002 41.5136 115.92 41.5136C117.456 41.5136 118.47 40.9114 118.771 39.7358H122.498ZM124.55 37.5188C124.55 33.4952 127.402 30.4012 131.678 30.4012C135.298 30.4012 138.176 32.5911 138.422 35.7937H134.582C134.363 34.5622 133.184 33.6597 131.786 33.6597C129.73 33.6597 128.523 35.2746 128.523 37.5188C128.523 39.763 129.755 41.3523 131.84 41.3523C133.238 41.3523 134.363 40.5057 134.637 39.2758H138.53C138.122 42.3282 135.27 44.6347 131.68 44.6347C127.403 44.6347 124.552 41.5407 124.552 37.5188M140.586 24.627H144.397V32.5368C145.197 31.1967 146.699 30.4028 148.618 30.4028C151.715 30.4028 153.738 32.639 153.738 35.8208V44.4159H149.934V36.6706C149.934 34.9998 148.837 33.7955 147.246 33.7955C145.576 33.7955 144.397 35.0733 144.397 36.8607V44.4143H140.586V24.627ZM156.522 30.6217H160.362V32.5384C161.13 31.1967 162.664 30.4044 164.557 30.4044C167.682 30.4044 169.712 32.6406 169.712 35.824V44.4175H165.872V36.6706C165.872 34.9998 164.803 33.7955 163.213 33.7955C161.541 33.7955 160.362 35.0829 160.362 36.8607V44.4159H156.522V30.6217ZM182.414 37.5188C182.414 35.2187 181.016 33.6597 178.96 33.6597C176.904 33.6597 175.507 35.2187 175.507 37.5188C175.507 39.7901 176.904 41.3523 178.96 41.3523C181.016 41.3523 182.414 39.7933 182.414 37.5188ZM171.667 37.5188C171.667 33.4121 174.707 30.4012 178.96 30.4012C183.213 30.4012 186.253 33.4121 186.253 37.5188C186.253 41.6254 183.213 44.6347 178.96 44.6347C174.707 44.6347 171.667 41.6238 171.667 37.5188ZM188.453 24.627H192.264V44.4159H188.453V24.627ZM205.182 37.5188C205.182 35.2187 203.782 33.6597 201.728 33.6597C199.674 33.6597 198.272 35.2187 198.272 37.5188C198.272 39.7901 199.672 41.3523 201.728 41.3523C203.784 41.3523 205.182 39.7933 205.182 37.5188ZM194.435 37.5188C194.435 33.4121 197.475 30.4012 201.728 30.4012C205.981 30.4012 209.021 33.4121 209.021 37.5188C209.021 41.6254 205.981 44.6347 201.728 44.6347C197.475 44.6347 194.435 41.6238 194.435 37.5188ZM221.029 37.5188C221.029 35.1915 219.686 33.6597 217.63 33.6597C215.602 33.6597 214.258 35.1915 214.258 37.5188C214.258 39.846 215.602 41.3523 217.63 41.3523C219.686 41.3523 221.029 39.846 221.029 37.5188ZM224.621 30.6217V45.2369C224.621 48.112 222.541 50 219.411 50H212.448V47.0163H218.81C219.962 47.0163 220.81 46.1122 220.81 44.8264V43.0198C220.098 44.0325 218.645 44.6347 217.027 44.6347C212.942 44.6347 210.502 41.8155 210.502 37.5188C210.502 33.2221 212.942 30.4028 216.973 30.4028C218.645 30.4028 220.013 31.0322 220.784 31.9889V30.6217H224.621ZM235.811 30.6217L232.931 39.517L230.027 30.6217H226.133L231.15 44.3057L229.122 49.9984H232.766L234.715 44.36L239.731 30.6217H235.811ZM94.0383 0.00479187H98.2047L101.88 13.7383L105.8 0.00479187H109.282L113.229 13.7383L116.93 0.00479187H121.099L115.424 19.7888H111.365L107.555 6.40993L103.744 19.7888H99.7407L94.0383 0.00479187ZM175.322 0.00479187H179.486L183.162 13.7383L187.082 0.00479187H190.563L194.512 13.7383L198.213 0.00479187H202.381L196.706 19.7888H192.648L188.838 6.40993L185.026 19.7888H181.022L175.322 0.00479187ZM130.939 12.8901C130.939 10.5916 129.539 9.03268 127.485 9.03268C125.43 9.03268 124.029 10.5916 124.029 12.8901C124.029 15.1631 125.429 16.7236 127.485 16.7236C129.541 16.7236 130.939 15.1647 130.939 12.8901ZM120.192 12.8901C120.192 8.7851 123.232 5.7758 127.485 5.7758C131.738 5.7758 134.776 8.7851 134.776 12.8901C134.776 16.9952 131.736 20.0077 127.485 20.0077C123.234 20.0077 120.192 16.9968 120.192 12.8901ZM143.414 9.16845C141.523 9.16845 140.674 10.729 140.674 13.0834V19.792H136.834V5.99304H140.674V8.29313C141.414 6.56806 142.456 5.99304 144.128 5.99304H145.691V9.16845H143.414ZM147.298 0H151.109V19.7888H147.298V0ZM163.893 12.8901C163.893 10.5645 162.549 9.03268 160.522 9.03268C158.494 9.03268 157.147 10.5645 157.147 12.8901C157.147 15.1902 158.493 16.7236 160.522 16.7236C162.55 16.7236 163.893 15.1918 163.893 12.8901ZM153.365 12.8901C153.365 8.59342 155.834 5.7758 159.835 5.7758C161.563 5.7758 162.906 6.43229 163.675 7.44338V0H167.488V19.7888H163.68V18.2826C162.914 19.3496 161.486 20.0077 159.898 20.0077C155.842 20.0077 153.373 17.1884 153.373 12.8901M204.115 19.7888H207.955V5.99463H204.115V19.7888ZM204.005 4.02358H208.061V0H204L204.005 4.02358ZM220.563 12.8901C220.563 10.5645 219.219 9.03268 217.19 9.03268C215.162 9.03268 213.818 10.5645 213.818 12.8901C213.818 15.1902 215.162 16.7236 217.19 16.7236C219.219 16.7236 220.563 15.1918 220.563 12.8901ZM210.035 12.8901C210.035 8.59342 212.502 5.7758 216.504 5.7758C218.232 5.7758 219.576 6.43229 220.344 7.44338V0H224.16V19.7888H220.347V18.2826C219.581 19.3496 218.154 20.0077 216.565 20.0077C212.507 20.0077 210.04 17.1884 210.04 12.8901M230.048 11.3312H236.16C236.05 9.79778 234.981 8.56627 233.144 8.56627C231.416 8.56627 230.374 9.41603 230.046 11.3312M240 15.1088C239.451 18.0909 236.819 20.0077 233.419 20.0077C228.731 20.0077 226.318 16.3339 226.318 12.863C226.318 9.36012 228.458 5.7758 233.146 5.7758C238.026 5.7758 239.971 9.36012 239.971 12.5084C239.971 13.0275 239.946 13.438 239.917 13.7399H229.997C230.27 15.6822 231.504 16.8866 233.422 16.8866C234.958 16.8866 235.973 16.2844 236.274 15.1088H240Z" fill="black"/>
<path d="M54.4752 34.206L64.584 44.2961C64.6694 44.3797 64.7844 44.4262 64.904 44.4255H77.544C77.6326 44.4262 77.7194 44.4007 77.7934 44.3521C77.8674 44.3035 77.9252 44.234 77.9595 44.1525C77.9938 44.071 78.003 43.9811 77.986 43.8943C77.969 43.8075 77.9266 43.7278 77.864 43.6652L61.424 27.2674L71.5312 17.1773C71.5727 17.136 71.6057 17.087 71.6281 17.033C71.6506 16.979 71.6622 16.9211 71.6622 16.8626C71.6622 16.8041 71.6506 16.7462 71.6281 16.6922C71.6057 16.6382 71.5727 16.5892 71.5312 16.548L65.2144 10.2402C65.173 10.1988 65.1237 10.1658 65.0695 10.1434C65.0153 10.1209 64.9571 10.1094 64.8984 10.1094C64.8397 10.1094 64.7816 10.1209 64.7274 10.1434C64.6731 10.1658 64.6239 10.1988 64.5824 10.2402L37.4176 37.3591C37.3749 37.4006 37.3409 37.4503 37.3176 37.5051C37.2944 37.56 37.2825 37.6189 37.2825 37.6785C37.2825 37.7381 37.2944 37.797 37.3176 37.8519C37.3409 37.9068 37.3749 37.9564 37.4176 37.998L43.736 44.3041C43.7775 44.3456 43.8267 44.3785 43.881 44.4009C43.9352 44.4234 43.9933 44.435 44.052 44.435C44.1107 44.435 44.1689 44.4234 44.2231 44.4009C44.2773 44.3785 44.3266 44.3456 44.368 44.3041L54.4752 34.206Z" fill="black"/>
<path d="M53.8575 0.135895L44.0511 9.92569L34.2399 0.135895C34.198 0.0939112 34.1481 0.0607016 34.0932 0.0382113C34.0382 0.015721 33.9793 0.00440192 33.9199 0.00491707H21.2799C21.191 0.00381684 21.1038 0.0292407 21.0295 0.0779306C20.9552 0.126621 20.8971 0.196359 20.8627 0.278208C20.8283 0.360058 20.8192 0.45029 20.8366 0.537343C20.8539 0.624396 20.8968 0.704303 20.9599 0.766825L37.1023 16.8627L33.6271 20.332L13.3983 0.135895C13.3562 0.0941265 13.3063 0.0610576 13.2514 0.0385823C13.1965 0.016107 13.1377 0.00466684 13.0783 0.00491707H0.447934C0.359379 0.00459281 0.272714 0.0304763 0.198886 0.0792981C0.125058 0.12812 0.0673805 0.197689 0.0331382 0.279219C-0.0011041 0.360749 -0.0103746 0.450581 0.00649773 0.537367C0.0233701 0.624154 0.0656283 0.704002 0.127934 0.766825L33.3119 33.8898C33.3535 33.9325 33.4033 33.9665 33.4582 33.9897C33.5132 34.0128 33.5723 34.0248 33.6319 34.0248C33.6916 34.0248 33.7507 34.0128 33.8056 33.9897C33.8606 33.9665 33.9103 33.9325 33.9519 33.8898L67.1247 0.766825C67.187 0.704002 67.2293 0.624154 67.2462 0.537367C67.263 0.450581 67.2538 0.360749 67.2195 0.279219C67.1853 0.197689 67.1276 0.12812 67.0538 0.0792981C66.98 0.0304763 66.8933 0.00459281 66.8047 0.00491707H54.1647C54.1054 0.00449095 54.0465 0.0158507 53.9916 0.038336C53.9366 0.0608212 53.8867 0.0939835 53.8447 0.135895M74.7039 0.135895L68.6879 6.14171C68.6464 6.1831 68.6134 6.23227 68.5909 6.28641C68.5684 6.34054 68.5568 6.39857 68.5568 6.45717C68.5568 6.51578 68.5684 6.57381 68.5909 6.62794C68.6134 6.68207 68.6464 6.73125 68.6879 6.77264L75.0063 13.0787C75.0477 13.1202 75.0968 13.1531 75.1509 13.1755C75.205 13.1979 75.263 13.2095 75.3215 13.2095C75.3801 13.2095 75.4381 13.1979 75.4922 13.1755C75.5463 13.1531 75.5954 13.1202 75.6367 13.0787L87.9711 0.766825C88.0334 0.704002 88.0757 0.624154 88.0926 0.537367C88.1094 0.450581 88.1002 0.360749 88.0659 0.279219C88.0317 0.197689 87.974 0.12812 87.9002 0.0792981C87.8264 0.0304763 87.7397 0.00459281 87.6511 0.00491707H75.0111C74.8914 0.00476123 74.7763 0.051834 74.6911 0.135895" fill="black"/>
</g>
<defs>
<clipPath id="clip0_1318_21212">
<rect width="240" height="50" fill="white"/>
</clipPath>
</defs>
</svg>
